<?xml version="1.0" encoding="utf-8"?>
<!-- Generator: Adobe Illustrator 26.0.1, SVG Export Plug-In . SVG Version: 6.00 Build 0)  -->
<svg version="1.1" id="Capa_1" xmlns="http://www.w3.org/2000/svg" xmlns:xlink="http://www.w3.org/1999/xlink" x="0px" y="0px"
	 viewBox="0 0 539.8 359.1" style="enable-background:new 0 0 539.8 359.1;" xml:space="preserve">
<style type="text/css">
	.st0{fill:#F2FEFF;}
	.st1{fill:#EFFFFF;}
	.st2{fill:#F9FAFF;}
	.st3{fill:#E7FFFF;}
	.st4{fill:#D3EEF9;}
	.st5{fill:#839ECD;}
	.st6{fill:#F4F5F4;}
	.st7{fill:#F3F4F4;}
	.st8{fill:#FBFEFC;}
	.st9{fill:#E1F6F9;}
	.st10{fill:#7E331E;}
	.st11{fill:#7F81A8;}
	.st12{fill:#70C4FE;}
	.st13{fill:#2A79BB;}
	.st14{fill:#F6FEFF;}
	.st15{fill:#F9F9F8;}
	.st16{fill:#046FCC;}
	.st17{fill:#7295B5;}
	.st18{fill:#026FCC;}
	.st19{fill:#BDF9FE;}
	.st20{fill:#154987;}
	.st21{fill:#80D3FF;}
	.st22{fill:#E1FEFF;}
	.st23{fill:#6DBDF7;}
	.st24{fill:#F9AFA1;}
	.st25{fill:#D5EFFB;}
	.st26{fill:#FAB1A3;}
	.st27{fill:#7C321B;}
	.st28{fill:#E6FEFF;}
	.st29{fill:#EDFFFF;}
	.st30{fill:#7D3321;}
	.st31{fill:#D2F6FF;}
	.st32{fill:#8BB2E0;}
	.st33{fill:#FDFDFD;}
	.st34{fill:#D7FAFE;}
	.st35{fill:#E9FEFF;}
	.st36{fill:#6C8DBB;}
	.st37{fill:#F0FEFC;}
	.st38{fill:#EAFFFF;}
	.st39{fill:#98B1D7;}
	.st40{fill:#DCF8FF;}
	.st41{fill:#524F51;}
	.st42{fill:#EEE8EA;}
	.st43{fill:#F8B0A1;}
	.st44{fill:#696E6B;}
	.st45{fill:#DFEEF8;}
	.st46{fill:#F9AFA0;}
	.st47{fill:#FDFEFC;}
	.st48{fill:#FC9047;}
	.st49{fill:#5A8EE0;}
	.st50{fill:#588EE1;}
	.st51{fill:#FC9F06;}
	.st52{fill:#FAB0A0;}
	.st53{fill:#F6B09E;}
	.st54{fill:#535051;}
	.st55{fill:#525051;}
	.st56{fill:#C68A6F;}
	.st57{fill:#EBFFFF;}
	.st58{fill:#016FCE;}
	.st59{fill:#5FADE9;}
	.st60{fill:#76B9F0;}
	.st61{fill:#61ACEC;}
	.st62{fill:#AD5B0F;}
	.st63{fill:#C7C7C4;}
	.st64{fill:#DFEDF8;}
	.st65{fill:#F16625;}
	.st66{fill:#947E9B;}
	.st67{fill:#00BBC4;}
	.st68{fill:#9C7C91;}
	.st69{fill:#A1B6CF;}
	.st70{fill:#0370CD;}
	.st71{fill:#BA9A9B;}
	.st72{fill:#2F7ABB;}
	.st73{fill:#D0DCEB;}
	.st74{fill:#CEDCE8;}
	.st75{fill:#F16525;}
	.st76{fill:#F04155;}
	.st77{fill:#98C6ED;}
	.st78{fill:#CACDCA;}
	.st79{fill:#D0D9E3;}
	.st80{fill:#CFD9E3;}
	.st81{fill:#F50A15;}
	.st82{fill:#C58F65;}
	.st83{fill:#967D9D;}
	.st84{fill:#A3948A;}
	.st85{fill:#CFDBE9;}
	.st86{fill:#CEDBE9;}
	.st87{fill:#164988;}
	.st88{fill:#8E8EB1;}
	.st89{fill:#F50A16;}
	.st90{fill:#D1D9E6;}
	.st91{fill:#D0D8E6;}
	.st92{fill:#658AD9;}
	.st93{fill:#9F7B8D;}
	.st94{fill:#A55A16;}
	.st95{fill:#B96E37;}
	.st96{fill:#D1DAE5;}
	.st97{fill:#D0DBE6;}
	.st98{fill:#74223B;}
	.st99{fill:#7A1D3C;}
	.st100{fill:#7E3518;}
	.st101{fill:#803420;}
	.st102{fill:#A17477;}
	.st103{fill:#71233A;}
	.st104{fill:#9FB7CF;}
	.st105{fill:#AA5611;}
	.st106{fill:#A75A18;}
	.st107{fill:#C5D6EA;}
	.st108{fill:#A3938B;}
	.st109{fill:#CDDAEA;}
	.st110{fill:#FEDACD;}
	.st111{fill:#6B8ACA;}
	.st112{fill:#FEFFFE;}
	.st113{fill:#CDCCCC;}
	.st114{fill:#D2DCE8;}
	.st115{fill:#9DA3C8;}
	.st116{fill:#FEFEFD;}
	.st117{fill:#537FCC;}
	.st118{fill:#CFD9E7;}
	.st119{fill:#E9E9E9;}
	.st120{fill:#CDDDEC;}
	.st121{fill:#AD5C0A;}
	.st122{fill:#AF5A0C;}
	.st123{fill:#4B91F9;}
	.st124{fill:#515050;}
	.st125{fill:#4B91FD;}
	.st126{fill:#514F50;}
	.st127{fill:#FDFEFD;}
	.st128{fill:#FAC0B2;}
	.st129{fill:#78193C;}
	.st130{fill:#BC0203;}
	.st131{fill:#BF0303;}
	.st132{fill:#F9BDB4;}
	.st133{fill:#096FD3;}
	.st134{fill:#7DE5E3;}
	.st135{fill:#E9E2E4;}
	.st136{fill:#747470;}
	.st137{fill:#0270CE;}
	.st138{fill:#9E9389;}
	.st139{fill:#FB9F88;}
	.st140{fill:#F8AFA1;}
	.st141{fill:#0170CD;}
	.st142{fill:#7C7A7B;}
	.st143{fill:#1F69B6;}
	.st144{fill:#F89F89;}
	.st145{fill:#F89F88;}
	.st146{fill:#8AA4CC;}
	.st147{fill:#8A8578;}
	.st148{fill:#8F847A;}
	.st149{fill:#FBDCCB;}
	.st150{fill:#0E3765;}
	.st151{fill:#CCB7BB;}
	.st152{fill:#0E3865;}
	.st153{fill:#262424;}
	.st154{fill:#EC4355;}
	.st155{fill:#EBE3E3;}
	.st156{fill:#F7B0A4;}
	.st157{fill:#04BAC1;}
	.st158{fill:#E8682F;}
	.st159{fill:#BE0100;}
	.st160{fill:#B19CAE;}
	.st161{fill:#BD0205;}
	.st162{fill:#F0EFF0;}
	.st163{fill:#672B2A;}
	.st164{fill:#F13F54;}
	.st165{fill:#CB5860;}
	.st166{fill:#3B3A3B;}
	.st167{fill:#FFE1CF;}
	.st168{fill:#B0AAAE;}
	.st169{fill:#6296C1;}
	.st170{fill:#F4F4F4;}
	.st171{fill:#96BCFB;}
	.st172{fill:#E2C6B1;}
	.st173{fill:#AC5A0E;}
	.st174{fill:#7B8097;}
	.st175{fill:#F5F4F4;}
	.st176{fill:#739EED;}
	.st177{fill:#252428;}
	.st178{fill:#AC5A0F;}
	.st179{fill:#4A91FE;}
	.st180{fill:#4C9ADC;}
	.st181{fill:#4C9ADD;}
	.st182{fill:#4C9BDC;}
	.st183{fill:#F9C1B4;}
	.st184{fill:#02BAC5;}
	.st185{fill:#CBCBCB;}
	.st186{fill:#FDD9CC;}
	.st187{fill:#4FDDE7;}
	.st188{fill:#EFF0EF;}
	.st189{fill:#BBCCF1;}
	.st190{fill:#628DB9;}
	.st191{fill:#EF4152;}
	.st192{fill:#164887;}
	.st193{fill:#F04052;}
	.st194{fill:#C8C6C7;}
	.st195{fill:#4992FD;}
	.st196{fill:#4991FF;}
	.st197{fill:#4991FD;}
	.st198{fill:#4697A2;}
	.st199{fill:#F0EFEF;}
	.st200{fill:#036ECA;}
	.st201{fill:#9498A3;}
	.st202{fill:#F7F4F2;}
	.st203{fill:#A95D0F;}
	.st204{fill:#736B78;}
	.st205{fill:#FBFBF0;}
	.st206{fill:#F9F9FA;}
	.st207{fill:#4992FC;}
	.st208{fill:#4A92FD;}
	.st209{fill:#4B92FC;}
	.st210{fill:#4993FC;}
	.st211{fill:#AB5C12;}
	.st212{fill:#B05C0D;}
	.st213{fill:#A09390;}
	.st214{fill:#6D75B8;}
	.st215{fill:#3B72C7;}
	.st216{fill:#866253;}
</style>
<g id="_x23_f2feffff">
	<path class="st0" d="M385.3,1.6c0.7-2.6,4.1-1.1,6.1-1.5c0,0.6,0,1.7,0,2.2C389.5,2,386.9,3.1,385.3,1.6z"/>
</g>
<g id="_x23_efffffff">
	<path class="st1" d="M373.1,1.1c2-0.1,3.9-0.3,5.9-0.4c-0.1,3.2-4,2.2-6.1,2.8C372.9,2.9,373,1.7,373.1,1.1z"/>
</g>
<g id="_x23_f9faffff">
	<path class="st2" d="M397.9,1.3c2-1.1,4.3-0.3,6.5-0.1c0,0.5-0.1,1.7-0.1,2.2C402.2,2.9,399.1,3.6,397.9,1.3z"/>
</g>
<g id="_x23_e7ffffff">
	<path class="st3" d="M359.8,6.5c0-3.4,3.7-3.1,6.1-3.6C366.2,6.5,362.3,6.1,359.8,6.5z"/>
</g>
<g id="_x23_d3eef9ff">
	<path class="st4" d="M410.8,2.7c2.2,0.5,7.1-0.3,6,3.4c-1.1-0.3-2.3-0.5-3.4-0.6C411.7,5.4,410.9,4.1,410.8,2.7z"/>
</g>
<g id="_x23_839ecdff">
	<path class="st5" d="M413.3,5.5c1.2,0.1,2.3,0.3,3.4,0.6C416.6,7.9,412.7,7.3,413.3,5.5z"/>
</g>
<g id="_x23_f4f5f4ff">
	<path class="st6" d="M422.7,7.1c2.6-0.5,7.1,0.2,6.4,3.8C426.7,10.1,424.2,9.3,422.7,7.1z"/>
	<path class="st6" d="M347.9,9c1.9-0.8,3.7-1.6,5.6-2.3c0.8,3.3-2.7,3.6-4.9,4.4C348.4,10.6,348,9.5,347.9,9z"/>
	<path class="st6" d="M335.9,15.8c2-1.5,4.2-3.3,6.9-2.7C341.3,15.1,338.2,18.7,335.9,15.8z"/>
	<path class="st6" d="M446.4,18.8c2,1.1,6.3,2.9,4,5.6c-1.5-0.9-2.9-2.1-4.3-3.1C446.2,20.7,446.4,19.5,446.4,18.8z"/>
	<path class="st6" d="M481.6,72.3c3.2-1.5,2.8,3.6,3.2,5.5C481.8,79,481.7,74.2,481.6,72.3z"/>
	<path class="st6" d="M253.9,101.8c1.5,0.6,3,1.2,4.5,1.8c0.1,1.1,0.2,2.2,0.3,3.3C256.8,105.5,253.2,104.8,253.9,101.8z"/>
	<path class="st6" d="M170,110.4c-0.1-2.3,2.5-3.5,4.3-4.4c0.3,0.4,1,1.1,1.3,1.4C173.8,108.5,172.4,111.1,170,110.4z"/>
	<path class="st6" d="M272.6,118.6c2.6-0.3,4.1,2.1,5,4.1c-0.6,0.6-1.2,1.2-1.8,1.8C274.6,122.5,273.5,120.6,272.6,118.6z"/>
	<path class="st6" d="M481.3,123.2c0.5,0,1.6,0.1,2.1,0.1c-0.4,2-0.8,3.9-1.2,5.9c-0.6,0-1.7-0.1-2.2-0.1
		C480.3,127.1,480.8,125.2,481.3,123.2z"/>
	<path class="st6" d="M279.9,129.8c0.5-0.3,1.4-0.8,1.9-1c1,1.9,1.9,3.7,2.8,5.6c-0.6,0-1.9,0.1-2.5,0.1
		C281.4,132.9,280.7,131.3,279.9,129.8z"/>
	<path class="st6" d="M299,136.9c3.1-2.3,6,4.3,2.9,5.6C300.9,140.7,299.9,138.8,299,136.9z"/>
	<path class="st6" d="M285.5,140.2c2,0.5,2.7,2.4,3.5,4.1c29.8-0.1,59.6,0.1,89.5-0.1c0.4,0.6,1.1,1.7,1.5,2.2c0.4,2,0,4.8,2.1,6
		c1.9,0.9,4.9,0.9,6.1-1.2c0.6-1.4,0.8-3,1.2-4.5c0.5,0,1.6,0,2.1,0c0.8,2.3,1,6.1,4.3,6.2c3.9,0.9,5-3.3,5.9-6.1
		c0.4-0.8,0.8-1.7,1.1-2.5c7.6-0.1,15.3-0.2,22.9-0.1c5.6,0,10.5,4.8,10.9,10.3c1.7,24.4,3.3,48.9,5,73.3c0.1,4.2,0.9,8.5-0.1,12.7
		c-2,7.3-0.6,14.9,2.5,21.7c0.5,8.1,1,16.3,1.6,24.4c-2.2-1.7-4.9-3.1-7.7-2.4c-1-17.9-2.2-35.7-3.3-53.5c1.1-1,2.3-1.9,3.5-2.9
		c-0.9-0.5-2.7-1.4-3.6-1.9c-1.6-19.8-2.6-39.6-3.9-59.4c-0.3-3.9-0.2-7.8-1-11.7c-0.6-1.9-2.8-2.6-4.6-2.5c-8-0.1-15.9,0-23.9,0
		c0,0.5-0.1,1.5-0.1,2c-2.5,2.1-5.9,2.2-8.5,0c-0.1-0.5-0.2-1.5-0.3-1.9c-1-0.1-1.9-0.2-2.9-0.2c0,0.5-0.1,1.4-0.2,1.9
		c-2.4,2.4-6,2.8-8.4,0.2c-0.4-1.3-1.2-2.2-2.7-1.9c-60.4-0.1-120.7,0-181.1,0c-2.6-0.4-5.9,1.2-5.5,4.3c0.7,14.9,2,29.8,2.9,44.7
		c-2.2,0.1-4.5,0.2-6.7,0.6l-1,0.2c-1.5-13.8-1.8-27.7-3.1-41.6c-0.2-4.2-1.2-9,1.6-12.6c1.9-2.9,5.4-3.9,8.7-3.8
		c30.6,0.1,61.2-0.1,91.8,0.1l0-0.6C285.5,142.8,285.5,141.1,285.5,140.2z"/>
	<path class="st6" d="M471.2,146.8c0.5,0.2,1.6,0.6,2.1,0.9c-1.1,2-1.9,4.8-4.6,5.2C468.9,150.6,470,148.6,471.2,146.8z"/>
	<path class="st6" d="M452,172.2c-0.4-2.7,2-4.9,4.5-5.3c0.5,2.2-1.6,3.5-2.7,5.1C453.4,172,452.5,172.1,452,172.2z"/>
	<path class="st6" d="M440.8,178.8c1.7-1.6,3.5-3.2,5.8-4C447.4,177.9,443.4,180.5,440.8,178.8z"/>
</g>
<g id="_x23_f3f4f4ff">
	<path class="st7" d="M435.8,11.9c1.6,1.4,5.8,1.9,4.8,4.7C438.3,16.3,433.7,14.8,435.8,11.9z"/>
	<path class="st7" d="M180.4,101.8c1.6-1.4,3.6-2.4,5.7-2.7c0,0.5,0.1,1.6,0.1,2.2C184.3,101.8,180.8,105.3,180.4,101.8z"/>
	<path class="st7" d="M463.7,157.3c0.4,0,1.2,0,1.6,0c0.1,0.5,0.3,1.6,0.3,2.1c-1.5,1.4-2.8,3.4-5.1,3.3
		C461.3,160.8,462.5,159.1,463.7,157.3z"/>
	<path class="st7" d="M192.7,224.2c1-0.7,2-1.4,3-2.1c0.8,11.2,1.3,22.4,2.4,33.6c-1.5,0-3-0.1-4.4-0.2c-0.5,0.1-1.1,0.2-1.6,0.4
		c-0.6-0.1-1.2-0.3-1.9-0.4c-0.2-1.6-0.4-3.2-0.5-4.8C194.8,242.8,191.4,232.9,192.7,224.2z"/>
</g>
<g id="_x23_fbfefcff">
	<path class="st8" d="M326.2,24.4c-0.5-2.5,2.8-3.3,4.4-4.7c0.3,0.4,0.8,1.3,1,1.7C329.8,22.5,328.4,24.9,326.2,24.4z"/>
	<path class="st8" d="M317,33.5c-0.7-2.7,2.4-4.8,4.8-4.8C320.9,30.7,319.6,33.4,317,33.5z"/>
	<path class="st8" d="M452.9,36.8c6.4-3.5,16.4-1.1,18.1,6.8c3.2-0.9,6.9-1.2,9.5,1.4c2.8,1.8,2.6,5.2,2.6,8.1
		c2.3,0.9,5.1,1.7,6.1,4.3c2.7,4.5-1.1,11.2-6.4,10.9c-12.4,0.1-24.7,0.1-37.1,0.1c-4.6,0.3-9.1-2.9-9.7-7.6
		c-2.1-6.7,3.5-15.5,11.1-13.8C447.6,43,449.1,38.6,452.9,36.8 M461.1,45.5l-1.4-0.2c-3,1.6-6.4,3.7-6.9,7.3
		c-0.9,4.9,3.9,8.8,8.3,9.7l-1.1,0.2c4.4,0.7,8.7-0.8,13.1-0.1c0.8,0.1,2.3,0.4,3.1,0.6c-0.6-1.2-1.2-2.3-1.8-3.4
		c1.2-1.3,1.2-2.5,0-3.8c1.9-4.6-2.5-9.6-7-10.1C466.8,43.7,462,43.8,461.1,45.5 M445.8,58.5c1,2.1,0.2,4.2-0.5,6.3
		c5-1.7,10.3,1,15-1.3c-3.1-1.3-6.8-2.7-8.2-6.2c-1.6-2.6-0.3-5.6,0.3-8.2C448.7,50.5,444,53.9,445.8,58.5z"/>
	<path class="st8" d="M309,43.6c-0.5-2.3,2-7.1,4.6-4.4C312.1,40.6,311.4,43.5,309,43.6z"/>
	<path class="st8" d="M204.7,95c-1.1-3.4,3.7-2.1,5.6-2.8c0.1,0.6,0.2,1.6,0.2,2.2C208.6,94.6,206.6,94.9,204.7,95z"/>
	<path class="st8" d="M242.1,97.1c2.4-1.1,5.6,0.5,6.1,3.1C246.3,99.6,242.3,99.7,242.1,97.1z"/>
	<path class="st8" d="M161,119.3c-0.4-2.6,2.5-4.9,5-4.6C164.8,116.6,163.7,119.8,161,119.3z"/>
	<path class="st8" d="M295,124.1c0.5,0.1,1.6,0.2,2.1,0.3c0.5,1.8,1.1,3.6,1.6,5.4C295.5,130,295.4,126.4,295,124.1z"/>
	<path class="st8" d="M146.1,185.9c0.6,0,1.7,0,2.3,0c0.4,1.8,0.8,3.5,1.3,5.3c-0.6,0-1.7,0.1-2.2,0.1
		C146.9,189.5,146.5,187.7,146.1,185.9z"/>
</g>
<g id="_x23_e1f6f9ff">
	<path class="st9" d="M455.7,28.8c2.1-2.9,4.8,2,5.4,3.9C458.6,33,456.7,30.9,455.7,28.8z"/>
</g>
<g id="_x23_7e331eff">
	<path class="st10" d="M384.6,43.3c6.6-1.7,13.5-1.2,20.1-0.1c-0.6,0.3-1.1,0.6-1.7,0.9c1.3,0.2,2.6,0.4,3.9,0.6
		c1.1,1.5,3,1.9,4.4,2.9c6.2,4.4,10.3,11.6,11.4,19.1c0.8,6-1,11.9-0.4,17.9c-0.3-1.9-0.7-3.9-1-5.8c0.4,9.6-1.5,19-2.9,28.4
		c-1.9,5.3-4.3,11.4-9.5,14.3c-0.5-2.1-0.8-4.2-1.5-6.2c-4.5-0.7-9.1-0.2-13.7-0.3c0.3-1.5,0.6-3,0.9-4.5c8.2-1.1,16-5.5,20.3-12.6
		c3.4-5.2,4.1-11.5,4.7-17.6c-2.6-0.3-5.1-0.6-7.6-0.9c-1.2-2.5-2.4-5-3.5-7.5c-1.5,2.1-3,4.3-4.4,6.4c-12.2-1.8-24.5-3.4-36.8-5.3
		c-1.4,6.6-2.4,13.6,0.3,20c2.6,7.3,8.7,13,15.8,15.9c-0.4,2.5-0.8,5-1.3,7.5c-0.3,0-1-0.2-1.3-0.2c-3.6,0.7-4.8,4.3-5.9,7.4
		c-5.9-3.5-9.9-9.5-11.9-16c-1.5-6.2-0.6-12.8,0.1-19.1c0.4-3.5,0.9-6.9,1.3-10.4c0.6-4.5,1.1-9,1.2-13.5c0.2,1.2,0.5,2.5,0.7,3.7
		C365.4,57,374.6,47.5,384.6,43.3z"/>
	<path class="st10" d="M176.4,264c0.2,0.6,0.5,1.7,0.7,2.3c-0.3,5.9-0.5,11.7,0,17.6c0.4,0.4,1,1.1,1.4,1.4l0.5,0.5
		c-0.7-0.1-2-0.3-2.7-0.4c0-2.2,0-4.4,0-6.6c0-2.7-0.1-5.3-0.1-7.9C176.2,268.6,176.2,266.3,176.4,264z"/>
</g>
<g id="_x23_7f81a8ff">
	<path class="st11" d="M408,44.9C408.6,45.4,408.6,45.4,408,44.9z"/>
</g>
<g id="_x23_70c4feff">
	<path class="st12" d="M461.1,45.5c0.9-1.7,5.7-1.8,6.3,0.2C465.3,45.7,463.2,45.8,461.1,45.5z"/>
</g>
<g id="_x23_2a79bbff">
	<path class="st13" d="M452.8,52.7c0.5-3.7,3.9-5.7,6.9-7.3l1.4,0.2c2.1,0.3,4.2,0.2,6.3,0.2c4.5,0.5,9,5.5,7,10.1
		c-0.8,1.1-0.9,2.7,0,3.8c0.6,1.1,1.2,2.3,1.8,3.4c-0.8-0.1-2.3-0.4-3.1-0.6c-4-0.9-8-0.7-12-0.1C456.8,61.5,451.9,57.6,452.8,52.7
		 M456.1,50.2c-2.1,2-1.8,5.8,0.5,7.7c3.2,3.2,8.1,3.3,12.2,1.8c1,0.3,3,0.8,4,1c-2.2-3.1,1.5-6.5-0.5-9.6
		C468.8,45.9,460.2,45.5,456.1,50.2z"/>
</g>
<g id="_x23_f6feffff">
	<path class="st14" d="M456.1,50.2c4.1-4.7,12.7-4.3,16.2,0.9c1.9,3.1-1.7,6.4,0.5,9.6c-1-0.3-3-0.8-4-1c-4,1.5-9,1.3-12.2-1.8
		C454.4,56,454,52.2,456.1,50.2 M457.6,50c0.2,0.4,0.5,1.2,0.7,1.6c3.7,0.6,7.5,0.2,11.3,0.2c-0.2-0.5-0.5-1.5-0.7-2
		C465.1,49.3,461.4,49.7,457.6,50 M457.5,53.1c0.4,0.3,1.2,0.8,1.6,1.1l-0.8,1.7l-0.9,0c1.5,1.3,3.5,1,5.3,1
		c2.4-0.1,5.1,0.4,7.3-0.9l-1.2-0.1l-0.1-2c0.3-0.2,0.9-0.7,1.2-0.9C465.8,52.6,461.7,52.7,457.5,53.1z"/>
</g>
<g id="_x23_f9f9f8ff">
	<path class="st15" d="M304.1,49.1c0.6,0.1,1.8,0.2,2.3,0.2c-1.3,2-1.7,5.7-4.8,5.4C302.2,52.7,303.1,50.8,304.1,49.1z"/>
	<path class="st15" d="M264.9,108.8c1.6,1.7,5,3.1,3.7,6C266.7,113.4,262.9,111.7,264.9,108.8z"/>
	<path class="st15" d="M292.1,111.9c0.6,0,1.8-0.1,2.4-0.1c0.2,1.8,0.5,3.5,0.7,5.2c-0.5,0.1-1.6,0.3-2.1,0.4
		C292.7,115.6,292.4,113.8,292.1,111.9z"/>
	<path class="st15" d="M474.7,140.8c0.9-2.1,2-4.1,3.1-6.1C480,136.6,477.8,142.3,474.7,140.8z"/>
	<path class="st15" d="M272.1,343c2.8-1.1,5.8-0.8,8.7-0.8c0.4,0,1.3,0,1.7,0c20.9-0.1,41.8,0.4,62.7-0.3c9.1-0.4,18.2,0,27.3-0.2
		c0.1,3.4,0,6.8,0.3,10.2c-34-0.1-68,0.1-102-0.1c-0.2-0.2-0.7-0.6-0.9-0.8c0.1-2.4,0.1-4.9,0.1-7.3
		C270.7,343.5,271.4,343.3,272.1,343z"/>
</g>
<g id="_x23_046fccff">
	<path class="st16" d="M445.8,58.5c-1.8-4.6,2.8-8.1,6.6-9.5c-0.6,2.7-1.9,5.7-0.3,8.2c1.4,3.4,5,4.8,8.2,6.2
		c-4.8,2.4-10.1-0.4-15,1.3C446,62.8,446.9,60.6,445.8,58.5z"/>
</g>
<g id="_x23_7295b5ff">
	<path class="st17" d="M457.6,50c3.7-0.3,7.5-0.6,11.3-0.2c0.2,0.5,0.5,1.5,0.7,2c-3.8,0-7.6,0.4-11.3-0.2
		C458.1,51.1,457.8,50.4,457.6,50z"/>
</g>
<g id="_x23_026fccff">
	<path class="st18" d="M457.5,53.1c4.1-0.3,8.3-0.4,12.4,0c-0.3,0.2-0.9,0.7-1.2,0.9c-3.2,0.2-6.4,0.1-9.5,0.2
		C458.8,53.9,458,53.4,457.5,53.1z"/>
	<path class="st18" d="M460,304.7c3.5,0,7,0.1,10.6,0.1c2.6,1.8,5.4,3.4,8.4,4.4c0,1.2,0.1,2.4,0.1,3.7c-1.2,1.4-2.3,2.7-3.4,4.2
		c-5.7,0-11.4-0.1-17.2,0.1C458.3,312.9,457.6,308.5,460,304.7z"/>
</g>
<g id="_x23_bdf9feff">
	<path class="st19" d="M459.2,54.2c3.2-0.1,6.4,0,9.5-0.2l0.1,2c-3.5-0.2-6.9-0.2-10.4,0L459.2,54.2z"/>
</g>
<g id="_x23_154987ff">
	<path class="st20" d="M457.5,56l0.9,0c3.4-0.1,6.9-0.2,10.4,0l1.2,0.1c-2.2,1.3-4.8,0.8-7.3,0.9C461,56.9,459,57.3,457.5,56z"/>
	<path class="st20" d="M389.2,152.3c1,0.1,1.9,0.2,2.9,0.2c0.1,0.5,0.2,1.5,0.3,1.9c0.2,1.9,0.4,3.9,0.9,5.8c1.9,1.1,4.3,0.9,6.3,0
		c1.4-1.6,1-3.9,1.3-5.8c0-0.5,0.1-1.5,0.1-2c8,0,15.9-0.1,23.9,0c1.8-0.1,4,0.6,4.6,2.5c0.8,3.8,0.7,7.8,1,11.7
		c1.3,19.8,2.4,39.6,3.9,59.4c-3.5-2-7-4-10.8-5.6c-0.3-0.4-0.7-0.8-1-1.2c-1.3-1.4-2.5-2.9-3.8-4.4c-1.3,0.1-2.5,0.1-3.8,0.2
		c-0.1,0.5-0.4,1.4-0.5,1.8c-0.5,1.6-0.9,3.1-1.4,4.7c-2-0.4-4.2-2.2-6.2-0.8c-1.1,1-1.7,2.4-2.4,3.6c-1.9,1.2-3.8,2.3-5.8,3.4
		l-1.4,0.8c-0.7-10.4-1.2-20.8-2.1-31.2c-53.6,0.1-107.2,0-160.8,0c1.4,22.8,2.9,45.5,4.3,68.3c0.1,5.8,5.3,10.8,11.1,10.5
		c41.6,0,83.3,0,124.9,0c1,5,1.9,10,3,15c0.6,0,1.8,0.1,2.3,0.1c-0.1,0.2-0.4,0.6-0.5,0.8c-3,0.3-6.5,0.2-8.5,2.9l0,0.1
		c-0.1,0.7-0.4,2.1-0.6,2.8c-2,0.1-4,0.2-5.9,0.3c-0.2,2.1-0.4,4.3-0.5,6.4c-29.6,0-59.3,0-88.9,0c0.1-5.9,0.1-11.9-0.5-17.8
		c-3.3-1.3-6.8-1.2-9.8,0.5c0.1-0.5,0.2-1.6,0.2-2.1c-5.7-0.3-11.4-0.1-17.1-0.3c-4.3,0-8.8-0.8-12.8,1.3c0.1-2.9-0.6-5.9-3.1-7.7
		c-2.3-2.7-6.1-2.2-9.3-2.3c-0.1-6.8,0.1-13.7-0.1-20.5c-8.1-0.7-16.3-0.5-24.4-0.1c-1.1-11.2-1.6-22.4-2.4-33.6
		c2.9-2.7,6.1-6.1,5.7-10.4c0.3-3.9-2.1-7.5-5.6-9.1c-2.6-0.9-5.4-0.7-8.2-0.5c2.2-0.4,4.5-0.5,6.7-0.6c-1-14.9-2.2-29.8-2.9-44.7
		c-0.4-3.1,2.9-4.6,5.5-4.3c60.4,0,120.7,0,181.1,0c1.5-0.4,2.3,0.5,2.7,1.9c0.2,2-0.2,4.4,1.3,6c1.5,0.5,3.2,0.7,4.8,0.3
		c2.3-1.3,1.8-4.3,2.2-6.5C389,153.7,389.1,152.7,389.2,152.3 M235.5,189.3c-1.6,2.1-0.9,4.9-1,7.4c27.1,0.2,54.2,0,81.4,0.1
		c26.4-0.1,52.8,0.2,79.1-0.2c1.3-6.5-5-11.9-11.1-11.9c-46.3-0.1-92.7,0-139-0.1C241.1,184.4,237.7,186.5,235.5,189.3z"/>
</g>
<g id="_x23_80d3ffff">
	<path class="st21" d="M474.5,59.6c-1-1.1-0.9-2.7,0-3.8C475.6,57,475.6,58.3,474.5,59.6z"/>
</g>
<g id="_x23_e1feffff">
	<path class="st22" d="M297.8,61.2c1-0.1,1.9-0.2,2.9-0.4c-0.6,2.1-1.2,4.1-2,6c-0.5-0.2-1.6-0.7-2.2-0.9
		C296.9,64.4,297.4,62.8,297.8,61.2z"/>
</g>
<g id="_x23_6dbdf7ff">
	<path class="st23" d="M461.2,62.3c4-0.6,8-0.9,12,0.1c-4.4-0.7-8.7,0.7-13.1,0.1L461.2,62.3z"/>
</g>
<g id="_x23_f9afa1ff">
	<path class="st24" d="M404,78.3c1.5-2.1,2.9-4.3,4.4-6.4c1.2,2.5,2.4,5,3.5,7.5c2.5,0.3,5.1,0.6,7.6,0.9c-0.6,6-1.2,12.4-4.7,17.6
		c-4.4,7.1-12.1,11.6-20.3,12.6c-0.3,1.5-0.6,3-0.9,4.5l-0.1,0.5c-2,0.3-4.1,0.4-6.1,0.9c-1.3,1.1-0.8,3.3-1.2,4.8
		c-1.5-1.6-2.9-3.2-4.3-4.8c0.5-2.5,0.9-5,1.3-7.5c-7.1-2.9-13.2-8.6-15.8-15.9c-2.6-6.4-1.6-13.5-0.3-20
		C379.5,74.9,391.8,76.4,404,78.3 M389,84c-1,1.2-0.9,2.9-0.7,4.3c0.9,0.6,2,0.8,3,1.1c0.4-1.4,1.2-2.8,1.1-4.3
		C392,83.7,390.3,82.9,389,84 M407.1,85.9c-1.1,2-2.1,6.6,1.7,5.9C411.3,90,410.6,85.4,407.1,85.9 M387.2,92.2
		c-0.1,4.9,2.8,10,7.9,11.1c5.8,2.1,13.4-1.9,13.7-8.4C401.6,94.2,394.5,92.6,387.2,92.2z"/>
	<path class="st24" d="M148.6,234.3c-0.1-5.8,0.6-11.9,4-16.8c3.3,3.5,6.9,6.9,11.3,8.7c9.1,4.1,20.4,3.7,28.8-2
		c-1.2,8.8,2.1,18.6-3,26.5c-1.1,1.6-2.3,3-3.5,4.5c-2.5,0-5,0.5-7.5,1.1c-0.1,1.4-0.1,2.8-0.1,4.1c-0.5,0.2-1.6,0.7-2.1,1
		c0,0.9-0.1,1.7-0.1,2.6c-0.1,2.3-0.2,4.6-0.2,6.9c-3.1,0-6.2-0.1-9.2-0.3c0-1.5,0-3.1,0-4.6v-0.6c-1.7-0.8-3.5,0-5,0.7l-0.5,0.2
		c0-0.3,0-0.9,0-1.2c1.9-0.2,3.9-0.4,5.8-0.6c0.2-2.2-1.4-2.5-3.1-2.4c0.9-0.3,1.9-0.6,2.8-0.8c-3.3-0.2-6.3-1.2-9-3
		c-3-2.6-5.9-5.6-7.2-9.4c-0.8-3.2-4.8-3.2-6.4-5.7c-2.2-2.7-0.2-7,2.7-8.3C147.3,234.7,148.2,234.4,148.6,234.3 M162.3,234.7
		c1.7-0.1,3.4-0.3,5.2-0.4c0-0.6-0.1-1.7-0.1-2.3C165.2,232.1,162.1,231.5,162.3,234.7 M184.5,232.7c-0.6,3.3,3.6,1.5,5.5,1.9
		c-0.2-0.6-0.6-1.8-0.9-2.4C187.8,232.1,185.1,230.9,184.5,232.7 M163,237c-3.2,1.7-0.8,7,2.6,5.5C169.7,241.2,166.7,234.7,163,237
		 M185,237c-2,1-2,4.5,0.2,5.3c1.8,1,4.5-0.4,4.4-2.6C189.8,237.4,187,235.7,185,237 M176.7,253.3c2.8-0.7,5-3.1,5.8-5.9
		c-4.5-0.2-8.9-0.2-13.4-0.3C168.6,251,173.2,253.8,176.7,253.3z"/>
	<path class="st24" d="M68.6,228.5c6.8-6.4,17.3-9,26.1-5.5c7,2.6,13.3,8.1,15.4,15.5c0.8,2.1,1.2,4.8,3.4,6
		c3.8,1.1,3.9,5.5,1.6,8.1c-0.6,0.1-1.8,0.3-2.4,0.4l-1.1,0.3l-0.4,0.1c-0.2,2.7-0.2,5.3-0.3,8c-4.3,0.2-8.6,0.2-13,0
		c1.5-3,2.8-6.1,3.7-9.3c-10.3-0.2-20.6-0.1-30.9,0c0.9,3.2,1.8,6.8,4.8,8.9c1.8,1.6,4.4,2.5,5.5,4.7c0.8,4.9-0.2,9.9,0.2,14.8
		c-2.5,0.2-5,0.6-7.3,1.5c-3.3-1.9-6.1-4.4-8.3-7.5c-2.1-3-3.6-6.3-4.5-9.9c-0.5-3.8-0.3-7.7-0.6-11.5c-1.2-0.2-2.4-0.4-3.6-0.6
		c-1.3-3-1.6-7,1.9-8.6l0.1-0.3c0.4-1.6,0.9-3.2,1.3-4.9c0.2,1.1,0.4,2.2,0.7,3.3C62.8,237.1,64.8,232.1,68.6,228.5 M79.2,242.1
		c0,1.4,0,2.9-0.1,4.3c1.6,0.4,4.2,0.9,3.9-1.7C83.7,241.9,81.4,241.5,79.2,242.1 M89.5,242.3c0,1.3,0,2.7,0,4
		c0.6,0.1,1.8,0.4,2.5,0.6c2.1-0.2,1.3-2.6,1.7-4c-0.4-0.4-1.4-1.1-1.8-1.5C91.2,241.6,90.1,242.1,89.5,242.3z"/>
</g>
<g id="_x23_d5effbff">
	<path class="st25" d="M292.8,78.9c0.7-2.4,0.1-6.3,3.7-6.1C295.9,75.2,296.8,79.8,292.8,78.9z"/>
</g>
<g id="_x23_fab1a3ff">
	<path class="st26" d="M360.5,80.4c0.3-1.9,2.4-1.7,3.8-2.2c-0.4,3.5-0.9,6.9-1.3,10.4C361,86.4,359,83.5,360.5,80.4z"/>
</g>
<g id="_x23_7c321bff">
	<path class="st27" d="M389,84c1.2-1.1,2.9-0.3,3.4,1.1c0.1,1.5-0.7,2.9-1.1,4.3c-1-0.3-2.1-0.5-3-1.1C388.1,86.8,388,85.2,389,84z"
		/>
</g>
<g id="_x23_e6feffff">
	<path class="st28" d="M291.6,85.5c0.9-0.1,1.8-0.1,2.7-0.1c-0.3,2.1-0.5,4.2-0.8,6.2c-0.6,0-1.7-0.1-2.3-0.2
		C291.4,89.5,291.5,87.5,291.6,85.5z"/>
</g>
<g id="_x23_edffffff">
	<path class="st29" d="M484,84.7c0.6,0,1.8,0.1,2.3,0.2c0.1,1.9,0.2,3.9,0.4,5.8c-0.6-0.1-1.8-0.3-2.4-0.4
		C484.2,88.5,484.1,86.6,484,84.7z"/>
</g>
<g id="_x23_7d3321ff">
	<path class="st30" d="M407.1,85.9c3.5-0.4,4.2,4.2,1.7,5.9C405,92.5,406,87.9,407.1,85.9z"/>
</g>
<g id="_x23_d2f6ffff">
	<path class="st31" d="M217,94.2c-0.4-3.7,3.5-2.5,5.8-2.3c0.1,0.6,0.2,1.7,0.3,2.3C221.1,94.3,219.1,94.2,217,94.2z"/>
</g>
<g id="_x23_8bb2e0ff">
	<path class="st32" d="M230,93c1.4-1.1,3.6,0.2,5.1,0.6c-1.5-0.3-2.9-0.2-4.2,0.3c-0.1,2,3.8,1.7,5.3,2.4c-2,0-4.1,0-6.1,0.1
		C229.7,95.2,229.6,94.1,230,93z"/>
</g>
<g id="_x23_fdfdfdff">
	<path class="st33" d="M387.2,92.2c7.3,0.4,14.4,1.9,21.6,2.7c-0.3,6.4-8,10.5-13.7,8.4C390.1,102.2,387.1,97.2,387.2,92.2z"/>
</g>
<g id="_x23_d7fafeff">
	<path class="st34" d="M230.9,93.9c1.3-0.5,2.7-0.6,4.2-0.3c0.3,0.7,0.8,2.1,1.1,2.7C234.7,95.6,230.8,95.9,230.9,93.9z"/>
</g>
<g id="_x23_e9feffff">
	<path class="st35" d="M192.1,96.1c2-0.6,4-1.1,6-1.5c-0.1,3.1-3.6,3.2-5.8,3.9C192.3,97.9,192.2,96.7,192.1,96.1z"/>
</g>
<g id="_x23_6c8dbbff">
	<path class="st36" d="M485,97.5c0.7-1.4,1.2-1.4,1.6,0.3C486.2,97.7,485.4,97.6,485,97.5z"/>
</g>
<g id="_x23_f0fefcff">
	<path class="st37" d="M485,97.5c0.4,0.1,1.2,0.2,1.6,0.3c0.4,2.2,1.4,6.4-1.9,6.4C484.7,101.9,484.8,99.7,485,97.5z"/>
</g>
<g id="_x23_eaffffff">
	<path class="st38" d="M291.1,98.7c0.6,0,1.8,0.1,2.4,0.1c0,1.9,0.1,3.8,0.1,5.8c-0.6,0-1.8-0.1-2.4-0.2
		C291.1,102.5,291.1,100.6,291.1,98.7z"/>
</g>
<g id="_x23_98b1d7ff">
	<path class="st39" d="M483.4,116.6c-1.6-1-1.4-5,0.4-5.6C483.9,112.9,483.8,114.8,483.4,116.6z"/>
</g>
<g id="_x23_dcf8ffff">
	<path class="st40" d="M483.8,111c0.6-0.1,1.7-0.2,2.3-0.2c-0.3,2,0.4,6.2-2.7,5.8C483.8,114.8,483.9,112.9,483.8,111z"/>
</g>
<g id="_x23_524f51ff">
	<path class="st41" d="M393.8,115c4.5,0.1,9.1-0.4,13.7,0.3c0.7,2,1,4.2,1.5,6.2l0.2,0.8c-0.6,0.4-1.9,1.2-2.5,1.6
		c1,0.4,2,0.9,3,1.3c-0.5,0-1.6,0-2.1,0c-2.2,0.6-4.6,1.9-4.8,4.5c-0.3,2.3,1.8,3.7,3,5.3c1.3,2,0.7,5.9-2.1,6.5
		c-4.6,0.7-9.3,0.5-14,1c-1.6,0.1-3.1,0.1-4.6,0.2c0-2.5,0.1-5.1,0.2-7.6c1.7-0.1,3.6,0.2,5-0.9c2.5-2,2-6.8-1.2-7.7
		c-0.7-0.1-2.1-0.4-2.8-0.5c0-1.5,0.1-3,0.2-4.5c0.4-1.5-0.1-3.7,1.2-4.8c2-0.5,4.1-0.6,6.1-0.9L393.8,115 M396,122
		c-1.4,1,0,3.7,1.6,2.4C399,123.4,397.5,120.7,396,122z"/>
</g>
<g id="_x23_eee8eaff">
	<path class="st42" d="M380.6,116.2c0.3,0.1,1,0.2,1.3,0.2c1.5,1.6,2.9,3.2,4.3,4.8c-0.1,1.5-0.1,3-0.2,4.5c0.7,0.1,2.1,0.4,2.8,0.5
		c-4.2-0.7-6.8,3.2-10.4,4.5C379.3,125.9,383,121.2,380.6,116.2z"/>
</g>
<g id="_x23_f8b0a1ff">
	<path class="st43" d="M374.8,123.6c1.1-3.1,2.2-6.7,5.9-7.4c2.3,5-1.4,9.7-2,14.6c3.6-1.3,6.2-5.2,10.4-4.5c3.2,1,3.7,5.7,1.2,7.7
		c-1.4,1.2-3.3,0.8-5,0.9c-2.9-0.1-5.8,0.4-8.6,1.2c-1.8,0.6-3.7,0.2-5.5,0.1C371.1,131.8,373.5,127.9,374.8,123.6z"/>
	<path class="st43" d="M155.1,277.8c2.1-4.5,7.9-3.2,11.9-3.4c3.6,0.2,6.5,2.4,9.3,4.5c0,2.2,0,4.4,0,6.6c0.7,0.1,2,0.3,2.7,0.4
		c0.8,0.8,1.7,1.2,2.8,1.2c6.6,0.6,13.3-0.8,19.8,0.5l0.8,0.3c-8.9-0.5-17.9,0.2-26.8-0.7c-2.4,2.4-5.5,3.8-8.5,5.4
		c-0.6-0.4-1.7-1.1-2.2-1.5c-2.4-0.7-3.8-2.8-5.4-4.4C155.9,285.2,153.3,281.6,155.1,277.8z"/>
	<path class="st43" d="M34.3,277.1c2.1-0.2,4.2-0.4,6.3-0.6c-0.3,2.2-0.2,4.4,0,6.6c0,1.9,0,3.9,0.5,5.7c-2.2,0-4.5,0-6.7-0.2
		C33.9,284.8,34.1,281,34.3,277.1z"/>
</g>
<g id="_x23_696e6bff">
	<path class="st44" d="M396,122c1.5-1.2,2.9,1.5,1.6,2.4C396.1,125.6,394.6,122.9,396,122z"/>
</g>
<g id="_x23_dfeef8ff">
	<path class="st45" d="M153.5,127.4c1.2-1.2,2.1-3.9,4.3-2.8c-0.4,2-1.5,3.7-2.5,5.4c-0.5,0-1.5,0-2,0.1
		C153.4,129.2,153.4,128.3,153.5,127.4z"/>
	<path class="st45" d="M261.1,222c8.8-2.7,18.8,5.5,17.9,14.6c0,5.2-4.1,10-9.2,10.9c-7.8,2-16.1-4.2-17.1-12
		C251.5,229.8,255.2,223.3,261.1,222 M260.6,226.8c0.4,5.5,0.4,11,1.2,16.5c3.3-1.9,6.3-4,9.5-6c0,0,0.1-0.1,0.1-0.1
		c1.1-0.6,2.3-1.3,3.4-1.9C270.4,232.1,265.4,229.6,260.6,226.8z"/>
</g>
<g id="_x23_f9afa0ff">
	<path class="st46" d="M402.8,129.7c0.2-2.5,2.6-3.9,4.8-4.5c1,0.6,2,1.1,2.9,1.7c0.7,0.9,1.3,1.9,2,2.8c-0.9,1.6-1.7,3.1-2.6,4.7
		c-1.4,0.2-2.7,0.4-4.1,0.5C404.6,133.4,402.5,132,402.8,129.7z"/>
</g>
<g id="_x23_fdfefcff">
	<path class="st47" d="M133.5,142.4c1.8-8.6,13.2-12.5,20.3-8c4.4,2.3,6.9,6.9,7.5,11.6c2.7-0.2,5.6-0.4,8,1.2
		c4.4,3.1,6.6,9.2,4.7,14.4c-1.2,4.5-5.7,7.4-10.2,7.2c-14.3,0.1-28.6-0.1-42.9-0.1c-2.5-0.2-5.5,0.3-7.5-1.6
		c-3.5-2.6-4.4-8.2-1.4-11.5c1.5-1.9,4-2.7,6.3-3.2C116.2,144.3,126.7,137.2,133.5,142.4 M140.3,147.2c-3.8,3.4-2.8,10.3,1.8,12.5
		c0.2,1.1,0.3,2.1,0.5,3.2c1.6-0.2,3.1-0.4,4.7-0.6c0.4-1,0.8-2.1,1.1-3.1c1.8-1.4,3.3-3.3,3.8-5.5c0.2-2.4-1.3-4.5-2.1-6.6
		C147,145.9,143.2,145.2,140.3,147.2 M143.1,163.9c0.2,1.4,3.9,1.3,4.3,0.1C146.2,163.1,144.3,163.1,143.1,163.9z"/>
</g>
<g id="_x23_fc9047ff">
	<path class="st48" d="M376.7,136.2c2.8-0.9,5.7-1.4,8.6-1.2c-0.1,2.5-0.1,5.1-0.2,7.6c1.5,0,3.1-0.1,4.6-0.2
		c4.3-0.1,8.7-0.8,13,0.3l0.8,0.3l-0.6,1.3c-0.4,0.8-0.8,1.7-1.1,2.5c-3.4-0.1-6.8-0.2-10.2-0.2c-0.5,0-1.6,0-2.1,0
		c-3.1,0-6.3-0.1-9.4-0.3c-0.4-0.6-1.1-1.7-1.5-2.2c-0.5-0.6-1.1-1.1-1.7-1.5C376.7,140.5,376.7,138.4,376.7,136.2z"/>
</g>
<g id="_x23_5a8ee0ff">
	<path class="st49" d="M283.5,142.5c0.7-0.8,1.3-1.5,2-2.3c0,0.9,0.1,2.6,0.1,3.5c-31.6-0.8-63.2,0.2-94.8-0.5
		c1.3-0.2,2.6-0.5,3.9-0.6C224.3,142.6,253.9,142.7,283.5,142.5z"/>
</g>
<g id="_x23_588ee1ff">
	<path class="st50" d="M401.9,142.5c3.6-0.6,7.3,0.2,10.9,0.2c4.7,0.1,9.5-0.6,14.2,0.5c-7.7,0.4-15.3,0.4-23,0.1l-0.6-0.2l-0.8-0.3
		L401.9,142.5z"/>
</g>
<g id="_x23_fc9f06ff">
	<path class="st51" d="M140.3,147.2c2.9-2,6.8-1.3,9.8,0c0.9,2.1,2.4,4.2,2.1,6.6c-0.6,2.2-2,4.1-3.8,5.5c-0.4,1-0.8,2-1.1,3.1
		c-1.6,0.2-3.1,0.4-4.7,0.6c-0.2-1.1-0.3-2.1-0.5-3.2C137.4,157.5,136.5,150.6,140.3,147.2z"/>
</g>
<g id="_x23_fab0a0ff">
	<path class="st52" d="M380,146.4c3.1,0.2,6.3,0.3,9.4,0.3c-0.4,1.5-0.6,3-1.2,4.5c-1.2,2.1-4.1,2.1-6.1,1.2
		C380,151.1,380.3,148.4,380,146.4z"/>
</g>
<g id="_x23_f6b09eff">
	<path class="st53" d="M391.5,146.6c3.4-0.1,6.8,0.1,10.2,0.2c-0.9,2.8-2,6.9-5.9,6.1C392.5,152.8,392.3,149,391.5,146.6z"/>
</g>
<g id="_x23_535051ff">
	<path class="st54" d="M380.6,154.3c2.4,2.6,6,2.2,8.4-0.2c-0.4,2.2,0.1,5.2-2.2,6.5c-1.6,0.4-3.3,0.2-4.8-0.3
		C380.4,158.7,380.8,156.3,380.6,154.3z"/>
</g>
<g id="_x23_525051ff">
	<path class="st55" d="M392.3,154.5c2.5,2.2,5.9,2.1,8.5,0c-0.3,1.9,0.1,4.2-1.3,5.8c-2,0.9-4.4,1.1-6.3,0
		C392.7,158.4,392.6,156.4,392.3,154.5z"/>
	<path class="st55" d="M187.6,290.6c0.9,0.7,1.8,1.5,2.8,2.2c2,1.8,4.7,2.1,7.3,2c4.4,3,6.5,8.1,9.1,12.5c3.3-0.1,6.7-0.3,9.8,0.9
		c-2.9,0.1-5.8,0.1-8.7,0.1c2.4,4.7,5.3,9,7.8,13.7c-2.9,0.7-6.1,1-8.3,3.1c-1.8,1.5-2.5,3.8-3.3,5.9c-1.3-2.1-2.6-4.2-3.9-6.4
		c-3.2-5.5-6.3-11-9.6-16.5c-2.4-1-5.2-0.8-7.8-0.8c-5.9,0.1-11.8,0.1-17.7,0c-0.1-4.9,0.1-9.7-0.4-14.6c0.4,0.1,1.4,0.3,1.8,0.4
		c3.3,0.2,6.6,0.2,9.9,0.1c3.3-0.2,6.6,0,9.9-0.5C186.6,292.2,187.3,291.2,187.6,290.6z"/>
	<path class="st55" d="M264.4,351.3c1.9-0.2,3.7-0.3,5.6-0.1c0.2,0.2,0.6,0.6,0.9,0.8c34,0.2,68,0,102,0.1l0,0.4
		c-31.3-0.1-62.7-0.1-94-0.1c-5.4-0.1-10.8,0.6-16.2-0.2C263.1,351.9,264,351.5,264.4,351.3z"/>
</g>
<g id="_x23_c68a6fff">
	<path class="st56" d="M143.1,163.9c1.2-0.8,3.1-0.8,4.3,0.1C147,165.2,143.3,165.3,143.1,163.9z"/>
</g>
<g id="_x23_ebffffff">
	<path class="st57" d="M143.4,173.4c0.9-0.1,1.7-0.2,2.6-0.3c-0.3,2.1,2,5.9-1.4,6C143.9,177.3,143.7,175.3,143.4,173.4z"/>
</g>
<g id="_x23_016fceff">
	<path class="st58" d="M235.5,189.3c2.2-2.9,5.7-5,9.4-4.7c46.3,0.1,92.7-0.1,139,0.1c6.1,0,12.4,5.4,11.1,11.9
		c-26.4,0.4-52.8,0.1-79.1,0.2c-27.1-0.1-54.2,0.1-81.4-0.1C234.5,194.3,233.9,191.5,235.5,189.3 M363.7,189.4c0,0.9,0,2.7,0,3.6
		c1.2-0.2,2.5-0.3,3.8-0.5c0-0.7,0-2,0-2.6C366.2,189.8,365,189.6,363.7,189.4 M370.7,189.7c0,0.8,0,2.4,0,3.1c0.8,0,2.5,0,3.3,0
		c0-0.8-0.1-2.3-0.1-3.1C373,189.7,371.5,189.7,370.7,189.7 M377.1,189.8c0,0.7,0,2.1-0.1,2.8c1.3,0.1,2.6,0.3,3.8,0.4
		c0-0.8-0.1-2.5-0.1-3.4C379.5,189.7,378.3,189.7,377.1,189.8z"/>
	<path class="st58" d="M264.7,287.4c3.1-1.7,6.6-1.9,9.8-0.5c0.6,5.9,0.6,11.8,0.5,17.8c0,7.5,0,15,0,22.5c0.1,4.9,0.1,9.9-0.9,14.8
		c2.4,0.1,4.9,0.2,7.3,0.3l-0.8,0c-2.9,0-5.9-0.3-8.7,0.8c-3.8,0.7-7.6,0.5-11.4,0.4c-3.3,0-6.7-0.4-9.7,1c1.8-2.8,3.5-5.6,5.4-8.3
		c0.2-0.4,0.7-1.2,0.9-1.6c1.9-2.9,1.6-6.4,1.2-9.6c4.9,0.3,11.7,0.7,14-4.8c2.8-5.7-1.8-12.4-8-12.3
		C264.1,301,263.7,294.2,264.7,287.4z"/>
	<path class="st58" d="M153.6,286.5c1.9,0,3.9,0,5.8,0.2c1.6,1.6,3,3.8,5.4,4.4c0,0.4-0.1,1.3-0.1,1.7c0.5,4.8,0.3,9.7,0.4,14.6
		c5.9,0.1,11.8,0.1,17.7,0c2.6,0,5.3-0.2,7.8,0.8c-8.5-0.3-17-0.4-25.5,0.1c0.1,5.3-0.4,10.6,0.4,15.8c4.3,1.9,9.7,0.5,14.4,0.8
		c6.8-0.1,13.6,0.2,20.4-0.3c1.3,2.1,2.6,4.3,3.9,6.4c2.6,4,5.1,8.1,7.1,12.4l0.1,0.2c-15.4-0.7-30.7,0.2-46.1-0.5
		c-1.9-0.1-3.8-0.1-5.7-0.1l-0.1,0.6c-8.8,0.1-17.7-0.1-26.5,0.1l0-0.7c7.5,0.2,14.9,0.1,22.4,0.1c-2.4-6.9-1.5-14.3-1.6-21.5
		C153.6,309.9,153.6,298.2,153.6,286.5z"/>
</g>
<g id="_x23_5fade9ff">
	<path class="st59" d="M363.7,189.4c1.2,0.2,2.5,0.3,3.7,0.5c0,0.7,0,2,0,2.6c-1.3,0.1-2.5,0.3-3.8,0.5
		C363.7,192.1,363.7,190.3,363.7,189.4z"/>
</g>
<g id="_x23_76b9f0ff">
	<path class="st60" d="M370.7,189.7c0.8,0,2.4,0,3.2,0c0,0.8,0.1,2.3,0.1,3.1c-0.8,0-2.5,0-3.3,0
		C370.6,192.1,370.6,190.5,370.7,189.7z"/>
</g>
<g id="_x23_61acecff">
	<path class="st61" d="M377.1,189.8c1.2-0.1,2.4-0.1,3.7-0.2c0,0.9,0.1,2.6,0.1,3.4c-1.3-0.1-2.6-0.3-3.8-0.4
		C377,191.9,377.1,190.5,377.1,189.8z"/>
</g>
<g id="_x23_ad5b0fff">
	<path class="st62" d="M153,197.2c1.7-0.6,3.2-1.5,4.8-2.3c3.2-0.9,6.7-0.7,10-0.4c1.7,0.3,3.8,0.2,4.9,1.7
		c3.9,2.3,6.9,6.1,8.5,10.3c2.4-0.3,3-3.6,5.3-4.3l1-0.2c2.7-0.2,5.5-0.3,8.2,0.5c3.4,1.6,5.9,5.2,5.6,9.1c0.4,4.3-2.7,7.7-5.7,10.4
		c-1,0.7-2,1.4-3,2.1c-8.4,5.7-19.6,6.2-28.8,2c-4.5-1.8-8.1-5.2-11.3-8.7c-3.4,5-4,11-4,16.8c-0.4,0.1-1.3,0.4-1.8,0.5
		c-0.5,0.1-1.5,0.4-2,0.5c-1.8-5-2.7-10.4-2.5-15.7c0-2.6,1.9-4.4,3.9-5.8c0.2-5,0.8-10.7,4.8-14.2C151.9,199,153,198.4,153,197.2z"
		/>
	<path class="st62" d="M372.6,304.8c2,0,4,0,6.1,0c0,7.5,0,14.9,0,22.4c0,0.2,0,0.7,0,1c0,4.7,0,9.4,0,14.1c0,3.3,0,6.6-0.1,9.9
		c-1.9,0.1-3.9,0.2-5.8,0.2l0-0.4c-0.3-3.4-0.2-6.8-0.3-10.2c-9.1,0.3-18.2-0.1-27.3,0.2c-0.1-0.1-0.3-0.4-0.4-0.5
		c9.3,0.2,18.6,0.1,27.8,0.1c0-4.5,0-9.1,0-13.6c-9.4-0.1-18.7-0.1-28.1,0c9.4-0.3,18.8-0.1,28.2-0.1l0-1.3
		C372.5,319.3,372.7,312.1,372.6,304.8z"/>
</g>
<g id="_x23_c7c7c4ff">
	<path class="st63" d="M151.1,199.7c-1.3-1.1,0.5-3.7,1.9-2.4C153,198.4,151.9,199,151.1,199.7z"/>
</g>
<g id="_x23_dfedf8ff">
	<path class="st64" d="M234.4,197.4c53.6,0,107.2,0.1,160.8,0c0.9,10.4,1.4,20.8,2.1,31.2l1.4-0.8c-4.6,2.6-9.1,5.2-14.1,7.2
		c-0.1-0.6-0.2-1.8-0.3-2.4c-1.1-7.6-0.8-15.3-1.9-22.8c-0.3-2.2-2.9-2.2-4.6-2.3c-25.4-0.1-50.7,0-76.1-0.1c-2,0.1-5.8,0.1-5,3.1
		c0.6,15.7,2,31.4,2.8,47c0.3,2,0.2,5.9,3.2,5.6c23.2,0.1,46.3,0,69.5,0c0.9,4.3,1.7,8.6,2.5,12.9c-41.6,0-83.3,0-124.9,0
		c-5.8,0.2-11-4.7-11.1-10.5C237.2,243,235.8,220.2,234.4,197.4 M259.3,216.4c-10.2,3.1-15.7,15.8-10.7,25.3
		c4.2,10.3,17.9,15.3,27.6,9.5c7.3-4.2,10.3-13.8,7.5-21.6C280.5,219.8,269.3,213.7,259.3,216.4z"/>
	<path class="st64" d="M384.4,239.9c3.9-3.3,8.7-5.1,13.1-7.6c0.7,10.6,1.4,21.2,2,31.8c-3.4,0.1-7.1-0.9-10.2,0.6
		c-0.5,3.8-0.3,7.6-0.4,11.5c-3.6,0-7.1,0-10.7,0c-0.8-4.2-1.6-8.3-2.3-12.5c3.2-0.2,6.4-0.5,9.5-0.6
		C386,255.4,385,247.6,384.4,239.9z"/>
</g>
<g id="_x23_f16625ff">
	<path class="st65" d="M466.7,201c3.4-2.3,7.3-2.6,11.3-2.3c-0.6,1.6,1.3,2.4,2.6,2.1c1.7-0.6,2.3,1.3,3.3,2.2
		c3.9,4.5,4.5,12.5-0.4,16.5c-0.2,0.9-0.4,1.9-0.6,2.8c0.7,0.1,2.2,0.4,3,0.5c0.8,1.5,2.5,2.2,3.7,3.3c0.9,0.9,1.9,1.9,2.8,2.8
		c0.1,0.4,0.3,1.2,0.4,1.6c1.8,0,3.5,0,5.3-0.1l0.5,0c1.3,1.6,2.7,3.1,4.2,4.6c0.1,2.5,0.2,5.1-0.1,7.6c0,0.3-0.1,0.9-0.1,1.1
		c-1.3,0.7-2.5,1.7-3.5,2.8c0,3.4-0.3,6.8-1.3,10c-0.1-3.3-0.7-6.6-1.3-9.9c-8.1,1.7-16.2,3.1-24.3,4.6c-8.8,1.9-18.7,0.5-25.3-6
		c-3.2,6.1-2,13.3-0.4,19.7c-0.8-1-1.6-2-2.4-3.1c-3.1-6.7-4.4-14.4-2.5-21.7c1.1-2.5,2.4-5,3.4-7.5c1.5-3.8,4.8-6.9,8.3-8.7
		c0-0.4,0-1.1,0-1.4c0.7,0,2.1-0.1,2.7-0.1c1.5,0.1,2.1-0.6,1.8-2c0.5,0,1.5-0.1,2-0.1c1.3-0.1,2.6-0.1,4-0.2
		c-0.9-4.6-1.7-9.4-1.2-14.1C463.4,204.2,465.2,202.7,466.7,201z"/>
</g>
<g id="_x23_947e9bff">
	<path class="st66" d="M478,198.8c1.2-1.4,3.9,0.6,2.6,2.1C479.3,201.2,477.4,200.4,478,198.8z"/>
</g>
<g id="_x23_00bbc4ff">
	<path class="st67" d="M61.5,201.2c4.7-0.7,9.6-1.2,14.3-0.3c5.1,1.9,8.6,6.3,12.4,9.9c3.2,3.3,6.5,6.4,9.2,10.1
		c-8.8-0.9-18.8-2.5-26.6,2.7c-5.1,3.5-9.5,8.7-10.6,14.9c-0.4,1.6-0.8,3.2-1.3,4.9c-2.2-1.9-4-4.1-6-6.1
		c-7.5-6.2-8.3-18.3-2.5-25.9C54.3,208.1,57.8,204.5,61.5,201.2z"/>
	<path class="st67" d="M34.7,308.7c30.6-0.2,61.1,0,91.7-0.1c6.2,0.3,12.5-0.4,18.7,0.3l0.7,0.8l-0.6,1.1c-4.1,0.5-8.3,0.2-12.4,0.2
		c-20.3,0-40.6,0-60.9,0c-4.1,0-8.3-0.4-12.4,0.4l-1.5,0.9c-5.9,2.8-6.4,12.7-0.5,15.7c1.7,0.7,3.6,0.5,5.4,0.5
		c26.9-0.1,53.8,0.1,80.7-0.1c2.3,0.5,0.5,4.4-1.6,3.1c-5.3,0.1-10.7,0.1-16-0.2c-2-0.4-4.1-0.7-6.2-0.7c-28.4,0-56.7,0.1-85-0.1
		c-0.4,0-1.3,0-1.7,0c-1.3-1.3-2.9-2.5-3.9-4.1c-1.4-5.1-1.2-10.8,2.2-15.1C32.5,310.5,33.6,309.5,34.7,308.7z"/>
</g>
<g id="_x23_9c7c91ff">
	<path class="st68" d="M463,218.3c-2-3.6-3.3-8.4-0.4-11.9c-0.5,4.8,0.3,9.5,1.2,14.1c-1.3,0.1-2.7,0.2-4,0.2
		C460.2,219.1,461.7,218.8,463,218.3z"/>
</g>
<g id="_x23_a1b6cfff">
	<path class="st69" d="M296.8,210.6c-0.8-3,3-3,5-3.1c25.4,0.1,50.7,0,76.1,0.1c1.7,0.1,4.3,0.1,4.6,2.3c1.1,7.6,0.7,15.3,1.9,22.8
		c-0.5,1.3-0.4,3-1.6,3.9c-3.1,2.1-6.4,3.8-9.9,5.2c-2.3,0.6-4.6,1.5-5.9,3.6c1,1,2,2.1,2.9,3.1c-15.7,0.7-31.4,0.2-47.1,0.3
		c-5.9,0.2-11.9-0.5-17.7,0.5l-0.7,1.3c8.1,0.6,16.3,0.2,24.5,0.3c13.5-0.1,26.9,0.2,40.3-0.2c0.7,0.6,1.3,1.2,1.8,1.9
		c-20.7,0.2-41.5,0-62.2,0.1c-1.7-0.1-3.1,0.6-4.5,1.5c0.6,0.1,1.7,0.2,2.2,0.2c21.3,1.1,42.6,0,63.9,0.5c0.1,0.4,0.3,1.3,0.4,1.7
		c-16.7-0.4-33.4-0.1-50-0.2c-5.3,0-10.6-0.3-15.8,0.4c2.7,1.5,5.9,1.2,8.8,1.2c19.1-0.2,38.2,0.2,57.3-0.2c0.4,1.8,0.7,3.7,1.1,5.5
		c-23.2,0-46.3,0.1-69.5,0c-2.9,0.3-2.9-3.6-3.2-5.6C298.8,242,297.4,226.3,296.8,210.6 M342.2,212.8c0.3,0.3,0.8,1,1,1.3
		c-1.5,0.9-1.5,1.9-0.2,2.9c0,0.5,0.1,1.4,0.1,1.8c0.8-0.4,1.6-0.9,2.3-1.4c1.8-1,0.3-3.1,0.3-4.6
		C344.9,212.8,343.1,212.8,342.2,212.8 M302.6,213.4c0.1,1.4,0.2,2.9,0.4,4.3c2.1-0.1,4.3-1.4,2.7-3.7
		C304.9,213.9,303.4,213.5,302.6,213.4 M308,214c0,0.7,0,2.1,0,2.8c9.6,0.5,19.3,0.3,28.9,0.1c-0.1-0.8-0.2-2.3-0.3-3
		C327.1,214.1,317.5,214,308,214 M347.3,214.3c0.2,0.8,0.6,2.3,0.8,3.1c9.5-0.2,19-0.1,28.6,0c0-1.1,0-2.3,0-3.4
		C366.8,214.2,357,213.5,347.3,214.3 M308,218.7c0,0.7,0,2.1,0.1,2.8c9.9,0.4,19.8,0.4,29.7,0c-0.4-4.1-5.1-3-8-3.2
		C322.5,218.6,315.2,218.1,308,218.7 M347.7,218.6c0.1,0.7,0.2,2.2,0.2,3c9.6,0.4,19.2,0.1,28.9,0.2c0-0.8,0.1-2.3,0.1-3
		C367.2,218.4,357.4,218.6,347.7,218.6 M308.9,226.4c9.5,0,19-0.1,28.6,0c0-1.1,0-2.2,0.1-3.4c-9.2,0.1-18.4-0.1-27.6,0.1
		C307.8,222.9,308.9,225.1,308.9,226.4 M348,223c0.1,1.1,0.2,2.1,0.3,3.2c9.7,0.2,19.5,0.4,29.2-0.1c-0.2-0.7-0.7-2.1-1-2.9
		C367,222.7,357.5,223.1,348,223 M308.5,227.8c0.2,0.6,0.5,1.9,0.7,2.5c9.6,0.6,19.2,0.4,28.8,0.2c0-0.7-0.1-2.1-0.2-2.8
		C328,227.5,318.2,227.3,308.5,227.8 M348.8,227.9c-0.1,0.5-0.3,1.4-0.4,1.8l0.6,0.7c9.5,0.6,19,0.3,28.6,0c0-0.7,0-2,0-2.7
		C367.9,227.5,358.3,227.3,348.8,227.9 M309,232c0,1.1,0,2.2,0,3.4c9.8-0.1,19.6-0.1,29.4,0c-0.3-1.1-0.6-2.2-0.9-3.4
		C328.1,232,318.6,232.1,309,232 M348.9,232c0,1.1,0.1,2.3,0.1,3.4c9.5-0.1,19.1,0,28.6-0.1c0-1.1,0-2.2,0-3.3
		C368.1,232,358.5,232,348.9,232 M303.6,242.1c1.8,2,4.7,1.5,7.1,1.6c18-0.2,36.1,0.1,54.1-0.1c1.3,0.2,2.3-0.7,3.2-1.5
		c-10.7-0.9-21.5,0-32.2-0.4C325.1,241.9,314.4,241.1,303.6,242.1 M304.8,245.6l0.1,1.2c14.3,0.6,28.7,0.1,43,0.3
		c6.4-0.2,12.9,0.5,19.3-0.5c-2.1-1.7-4.9-1.2-7.3-1.3C341.5,245.5,323.1,245,304.8,245.6z"/>
</g>
<g id="_x23_0370cdff">
	<path class="st70" d="M88.3,210.8c7.1-1.5,15.1-0.2,20.4,4.9c7.7,6.8,8.7,18.8,4.6,27.8c-0.9-5.7-2.9-11.4-6.9-15.6
		c-2.6-2.8-6-4.5-8.9-6.9C94.8,217.3,91.5,214.1,88.3,210.8z"/>
</g>
<g id="_x23_ba9a9bff">
	<path class="st71" d="M342.2,212.8c0.9,0,2.7,0,3.6,0c0,1.5,1.5,3.6-0.3,4.6c-0.8,0.5-1.5,1-2.3,1.4c0-0.5-0.1-1.4-0.1-1.8
		c2.5,0.2,2.3-2.6,0.2-2.9C343,213.8,342.5,213.1,342.2,212.8z"/>
</g>
<g id="_x23_2f7abbff">
	<path class="st72" d="M302.6,213.4c0.8,0.2,2.3,0.5,3,0.6c1.6,2.3-0.5,3.6-2.7,3.7C302.9,216.3,302.7,214.8,302.6,213.4z"/>
</g>
<g id="_x23_d0dcebff">
	<path class="st73" d="M308,214c9.5,0,19,0.1,28.6-0.1c0.1,0.8,0.2,2.3,0.3,3c-9.6,0.1-19.3,0.4-28.9-0.1
		C308,216.1,308,214.7,308,214z"/>
</g>
<g id="_x23_cedce8ff">
	<path class="st74" d="M347.3,214.3c9.7-0.7,19.5-0.1,29.3-0.3c0,1.1,0,2.3,0,3.4c-9.5-0.1-19-0.1-28.6,0
		C347.9,216.6,347.5,215.1,347.3,214.3z"/>
</g>
<g id="_x23_f16525ff">
	<path class="st75" d="M343.1,217c-1.4-1-1.3-2,0.2-2.9C345.5,214.4,345.6,217.2,343.1,217z"/>
	<path class="st75" d="M58.9,289c0.7,0,2.1-0.1,2.7-0.1c3,0,6.1,0,9.1,0.1c3.4,0.1,6.8,0,10.2-0.3c8.5-0.4,17.1-0.4,25.6,0
		c3.5,0.3,7.1,0.5,10.6,0.3c3.1-0.1,6.2-0.2,9.4-0.1c0.6,0,1.7,0,2.3,0.1c-0.5,0.2-1,0.5-1.5,0.8c6.6,2.2,6.8,11.4,2.9,16.1
		c-1.3,0.9-2.6,1.8-3.8,2.7c-30.6,0-61.2-0.1-91.7,0.1c-1.5-0.4-7.5,1.1-5.3-2.2c25.8-0.6,51.6,0.1,77.4-0.4
		c-26,0-52.1-0.2-78.1,0.1l0.1-0.9c25,0,50,0,75,0c2.2-0.1,5.1,0,6.4-2.2c2-3.7,1.2-8.8-2.2-11.4l-0.9-0.9
		c-10.7-0.9-21.5-0.1-32.2-0.4c-5.7-0.3-11.6,1-17.1-1.3L58.9,289z"/>
</g>
<g id="_x23_f04155ff">
	<path class="st76" d="M415,215c1.3-0.1,2.5-0.1,3.8-0.2c1.2,1.5,2.5,2.9,3.8,4.4c-2,1.8-4.1,3.6-6.2,5.3c-0.7-0.9-1.3-1.7-2-2.5
		c0-1.7,0.1-3.4,0.1-5.1C414.6,216.4,414.8,215.5,415,215z"/>
</g>
<g id="_x23_98c6edff">
	<path class="st77" d="M259.3,216.4c10-2.6,21.2,3.4,24.4,13.2c2.8,7.8-0.2,17.4-7.5,21.6c-9.7,5.8-23.3,0.7-27.6-9.5
		C243.6,232.2,249.1,219.5,259.3,216.4 M261.1,222c-5.9,1.3-9.6,7.8-8.4,13.6c1,7.8,9.3,14,17.1,12c5.1-0.9,9.2-5.7,9.2-10.9
		C279.9,227.5,269.9,219.4,261.1,222z"/>
</g>
<g id="_x23_cacdcaff">
	<path class="st78" d="M413.1,221.6c0.4-1.6,0.8-3.2,1.4-4.7c0,1.7-0.1,3.4-0.1,5.1c-0.2,0.2-0.8,0.5-1,0.7
		c-0.9,1.7-0.8,4.9-3.5,4.6c-4.7,0.1-8.5,2.9-12.4,5.1c-4.4,2.5-9.2,4.3-13.1,7.6c-3,1.4-6,2.8-8.9,4.5c1,0.6,2,1.2,3,1.7
		c-1.5,0.6-3,1.1-4.5,1.8c0.2-2.2-0.4-4.3-1.2-6.3c3.4-1.4,6.8-3.1,9.9-5.2c1.2-0.8,1.1-2.6,1.6-3.9c0.1,0.6,0.2,1.8,0.3,2.4
		c4.9-1.9,9.5-4.5,14.1-7.2c1.9-1.1,3.9-2.2,5.8-3.4c0.8-1.2,1.3-2.7,2.4-3.6C408.9,219.4,411.1,221.2,413.1,221.6 M406.7,225.7
		c0.9,1.5,2.9,0.6,4.2,0.2c1.7-2.1-0.7-4-2.1-5.3C407.8,222,405,223.7,406.7,225.7z"/>
</g>
<g id="_x23_d0d9e3ff">
	<path class="st79" d="M308,218.7c7.2-0.7,14.4-0.1,21.7-0.4c3,0.1,7.6-1,8,3.2c-9.9,0.3-19.8,0.3-29.7,0
		C308.1,220.8,308,219.4,308,218.7z"/>
</g>
<g id="_x23_cfd9e3ff">
	<path class="st80" d="M347.7,218.6c9.7,0,19.5-0.2,29.2,0.1c0,0.8-0.1,2.3-0.1,3c-9.6,0-19.2,0.2-28.9-0.2
		C347.9,220.8,347.8,219.3,347.7,218.6z"/>
</g>
<g id="_x23_f50a15ff">
	<path class="st81" d="M422.5,219.2c0.3,0.4,0.7,0.8,1,1.2c3.7,1.6,7.2,3.7,10.8,5.6c0.9,0.5,2.7,1.4,3.6,1.9
		c-2.3,1.6-4.6,3.4-7.1,4.8c-1.6,0-2.4,0.7-2.2,2.2l-0.9-0.1c-1.6-0.2-2.3,0.5-2.1,2.1l-0.9-0.1c-1.7-0.2-2.4,0.5-2.2,2.1
		c-1.2,0.6-2.4,1.3-3.6,2c-0.5-2-0.9-4.1-1.4-6.1c-0.4-3.4-0.7-6.8-1.2-10.1C418.5,222.8,420.5,221,422.5,219.2z"/>
</g>
<g id="_x23_c58f65ff">
	<path class="st82" d="M70.9,223.7c7.8-5.2,17.8-3.6,26.6-2.7c2.9,2.4,6.3,4.1,8.9,6.9c4,4.2,6,10,6.9,15.6c0,0.2,0.1,0.6,0.2,0.9
		c-2.3-1.1-2.6-3.8-3.4-6c-2.1-7.4-8.4-12.9-15.4-15.5c-8.8-3.4-19.3-0.9-26.1,5.5c-3.9,3.6-5.8,8.6-7.6,13.4
		c-0.2-1.1-0.5-2.2-0.7-3.3C61.5,232.4,65.8,227.2,70.9,223.7z"/>
	<path class="st82" d="M455.4,297.2l0.2,0.2c3.7,1,7.6,0.9,11.3-0.2c5.2,1.3,10.7,1.2,15.9,0.1c0.3,0,1,0.1,1.3,0.1
		c0.3,0.2,1,0.8,1.4,1c4.4,0.5,8.9,0.4,13.3-0.1c0.2,2.2,0.4,4.3,0.5,6.5c-3.4,0-6.9,0-10.3,0c-2.1,0-4.1,0-6.2,0
		c-4.1,0-8.1,0-12.2,0c-3.5,0-7.1-0.1-10.6-0.1c-4.4,0-8.9-0.1-13.3,0c-13.5,0.1-27.1,0-40.6,0.1l-0.6,0c-1.8,0-3.6-0.1-5.4-0.1
		c-7.1,0-14.3,0-21.4,0c-2,0-4,0-6.1,0c-2.6,0-5.3,0-7.9-0.1c0-2.1-0.1-4.1-0.1-6.2c2-0.1,4-0.3,6.1-0.4c5.7,0.5,11.6,0.8,17.2-0.3
		c0.4-0.1,1.1-0.3,1.5-0.4c11.4-0.5,22.9,0,34.4-0.2c6.9-0.2,13.8,1,20.7,1c1.6,0,3.2,0.1,4.8,0.1
		C451.3,298.1,453.3,297.6,455.4,297.2z"/>
</g>
<g id="_x23_967d9dff">
	<path class="st83" d="M456,222.8c-0.6-1.7,0-2.3,1.8-2C458.1,222.2,457.5,222.9,456,222.8z"/>
</g>
<g id="_x23_a3948aff">
	<path class="st84" d="M406.7,225.7c-1.6-2,1.1-3.6,2.1-5.1c1.4,1.3,3.8,3.2,2.1,5.3C409.6,226.2,407.6,227.2,406.7,225.7z"/>
</g>
<g id="_x23_cfdbe9ff">
	<path class="st85" d="M308.9,226.4c0-1.2-1.1-3.5,1-3.3c9.2-0.2,18.4,0,27.6-0.1c0,1.1,0,2.2-0.1,3.4
		C327.9,226.3,318.4,226.3,308.9,226.4z"/>
</g>
<g id="_x23_cedbe9ff">
	<path class="st86" d="M348,223c9.5,0.1,19-0.3,28.5,0.2c0.2,0.7,0.7,2.1,1,2.9c-9.7,0.6-19.4,0.3-29.2,0.1
		C348.2,225.1,348.1,224,348,223z"/>
</g>
<g id="_x23_164988ff">
	<path class="st87" d="M413.3,222.7c0.3-0.2,0.8-0.5,1-0.7c0.7,0.8,1.4,1.6,2,2.5c0.5,3.4,0.8,6.8,1.2,10.1c0.5,2,1,4.1,1.4,6.1
		c1.2-0.7,2.4-1.4,3.6-2c1.6,0,2.3-0.7,2.2-2.1l0.9,0.1c1.6,0.2,2.3-0.5,2.1-2.1l0.9,0.1c1.7,0.2,2.4-0.5,2.2-2.2
		c2.5-1.4,4.8-3.1,7.1-4.8c-1.1,1-2.3,1.9-3.5,2.9c1.1,17.9,2.4,35.7,3.3,53.5c-0.8,1.4-2,2.7-1.9,4.4c0.8,2.2,2.1,4.2,3.1,6.3
		c-1.1,0-3.3-0.1-4.4-0.1c0.4-3,0.7-6.1,0.3-9.2c-0.9-7-0.2-14-0.4-21c-11.7-0.7-23.4,0.2-35.1-0.5c-0.6-10.6-1.3-21.2-2-31.8
		c3.9-2.2,7.7-5,12.4-5.1C412.6,227.6,412.4,224.4,413.3,222.7z"/>
	<path class="st87" d="M378.1,276.2c3.6,0,7.1,0,10.7,0c-0.7,6.5,1.7,13.5-1.4,19.5c-0.3-0.6-0.9-1.9-1.2-2.5
		c-0.4-0.1-1.2-0.3-1.6-0.4c-1.7-0.3-3.4-0.5-5.1-0.7c0.1-0.2,0.4-0.6,0.5-0.8c0.2-0.3,0.6-1,0.8-1.4
		C379.9,285.4,379,280.8,378.1,276.2z"/>
	<path class="st87" d="M41.5,288.9l0.9-0.2c5.5-0.3,11-0.2,16.5,0.3l-1.1,0C52.4,288.9,46.9,289.1,41.5,288.9z"/>
</g>
<g id="_x23_8e8eb1ff">
	<path class="st88" d="M441.6,227.9c0.2-1.1,0.4-2.1,0.7-3.2c0,2.6-0.1,5.3,0.2,7.9c0.6,0.1,1.8,0.3,2.4,0.4c-1,2.6-2.3,5-3.4,7.5
		C442.5,236.4,441.8,232.1,441.6,227.9z"/>
</g>
<g id="_x23_f50a16ff">
	<path class="st89" d="M260.6,226.8c4.8,2.8,9.8,5.3,14.3,8.6c-1.2,0.6-2.3,1.2-3.4,1.9c0,0-0.1,0.1-0.1,0.1c-3.2,2-6.3,4.1-9.5,6
		C261,237.9,261,232.3,260.6,226.8z"/>
</g>
<g id="_x23_d1d9e6ff">
	<path class="st90" d="M308.5,227.8c9.7-0.5,19.5-0.3,29.3,0c0.1,0.7,0.1,2.1,0.2,2.8c-9.6,0.2-19.2,0.4-28.8-0.2
		C309,229.7,308.6,228.4,308.5,227.8z"/>
</g>
<g id="_x23_d0d8e6ff">
	<path class="st91" d="M348.8,227.9c9.6-0.6,19.2-0.4,28.8-0.1c0,0.7,0,2,0,2.7c-9.5,0.3-19.1,0.6-28.6,0l-0.6-0.7
		C348.5,229.3,348.7,228.3,348.8,227.9z"/>
</g>
<g id="_x23_658ad9ff">
	<path class="st92" d="M492.4,229.1c1.9-0.8,5.2-1.2,5.7,1.5c-1.8,0.1-3.5,0.1-5.3,0.1C492.7,230.3,492.5,229.5,492.4,229.1z"/>
</g>
<g id="_x23_9f7b8dff">
	<path class="st93" d="M498.5,230.6c4.9,1.2,8.3,8.5,4.1,12.2c0.3-2.5,0.3-5.1,0.1-7.6C501.3,233.7,499.8,232.2,498.5,230.6z"/>
</g>
<g id="_x23_a55a16ff">
	<path class="st94" d="M162.3,234.7c-0.2-3.2,2.9-2.6,5.1-2.7c0,0.6,0.1,1.7,0.1,2.3C165.7,234.4,164,234.5,162.3,234.7z"/>
</g>
<g id="_x23_b96e37ff">
	<path class="st95" d="M184.5,232.7c0.5-1.8,3.2-0.6,4.6-0.5c0.2,0.6,0.6,1.8,0.9,2.4C188.2,234.2,183.9,236,184.5,232.7z"/>
</g>
<g id="_x23_d1dae5ff">
	<path class="st96" d="M309,232c9.5,0,19,0,28.5,0c0.3,1.1,0.6,2.2,0.9,3.4c-9.8,0-19.6-0.1-29.4,0C309.1,234.3,309,233.1,309,232z"
		/>
</g>
<g id="_x23_d0dbe6ff">
	<path class="st97" d="M348.9,232c9.6,0,19.1,0,28.7,0c0,1.1,0,2.2,0,3.3c-9.5,0.1-19.1-0.1-28.6,0.1C349,234.3,349,233.1,348.9,232
		z"/>
</g>
<g id="_x23_74223bff">
	<path class="st98" d="M428.7,234.8c-0.2-1.5,0.5-2.2,2.2-2.2C431,234.3,430.3,235,428.7,234.8z"/>
</g>
<g id="_x23_7a1d3cff">
	<path class="st99" d="M425.7,236.8c-0.3-1.6,0.4-2.3,2.1-2.1C428,236.3,427.3,237,425.7,236.8z"/>
</g>
<g id="_x23_7e3518ff">
	<path class="st100" d="M163,237c3.7-2.3,6.7,4.2,2.6,5.5C162.2,243.9,159.8,238.7,163,237z"/>
</g>
<g id="_x23_803420ff">
	<path class="st101" d="M185,237c2-1.3,4.8,0.4,4.6,2.8c0.1,2.2-2.6,3.6-4.4,2.6C183,241.5,183,238,185,237z"/>
</g>
<g id="_x23_a17477ff">
	<path class="st102" d="M271.3,237.4c0,0,0.1-0.1,0.1-0.1C271.4,237.3,271.3,237.3,271.3,237.4z"/>
</g>
<g id="_x23_71233aff">
	<path class="st103" d="M422.6,238.8c-0.2-1.7,0.5-2.4,2.2-2.1C425,238.1,424.2,238.8,422.6,238.8z"/>
</g>
<g id="_x23_9fb7cfff">
	<path class="st104" d="M375.5,244.4c2.9-1.7,5.9-3.1,8.9-4.5c0.6,7.7,1.6,15.4,1,23.2c-3.1,0-6.3,0.1-9.4-0.5
		c-0.8-1.3-0.8-2.9-1.1-4.3c1.5-0.4,3-0.7,4.5-1.1c-1.8-0.7-3.6-1.4-5.4-2.1c1.8-0.4,3.6-0.9,5.3-1.3c-1.9-0.8-3.9-1.5-5.9-2.1
		c1.9-0.6,3.7-1.2,5.6-1.9c-1.7-0.6-3.5-1.1-5.3-1.6l0.4-0.4c1.5-0.7,3-1.2,4.5-1.8C377.5,245.6,376.5,245,375.5,244.4z"/>
	<path class="st104" d="M390.1,296.3c0.1-0.2,0.3-0.6,0.4-0.8c14.4,1.4,29,0,43.5,0.8C419.4,296.4,404.7,296.3,390.1,296.3z"/>
</g>
<g id="_x23_aa5611ff">
	<path class="st105" d="M79.2,242.1c2.2-0.6,4.5-0.2,3.8,2.6c0.4,2.6-2.3,2-3.9,1.7C79.2,245,79.2,243.5,79.2,242.1z"/>
</g>
<g id="_x23_a75a18ff">
	<path class="st106" d="M89.5,242.3c0.6-0.2,1.8-0.6,2.4-0.8c0.4,0.4,1.4,1.1,1.8,1.5c-0.4,1.4,0.4,3.8-1.7,4
		c-0.6-0.2-1.9-0.5-2.5-0.6C89.5,244.9,89.5,243.6,89.5,242.3z"/>
</g>
<g id="_x23_c5d6eaff">
	<path class="st107" d="M303.6,242.1c10.7-1,21.5-0.1,32.2-0.5c10.7,0.4,21.5-0.5,32.2,0.4c-0.9,0.8-1.9,1.7-3.2,1.5
		c-18,0.2-36-0.1-54.1,0.1C308.4,243.6,305.5,244.1,303.6,242.1z"/>
</g>
<g id="_x23_a3938bff">
	<path class="st108" d="M366.9,245.3c1.3-2.1,3.6-3,5.9-3.6c0.8,2,1.4,4.1,1.2,6.3l-0.4,0.4c-1.3,0-2.6,0.1-3.8,0.1
		C368.9,247.4,367.9,246.4,366.9,245.3z"/>
</g>
<g id="_x23_cddaeaff">
	<path class="st109" d="M304.8,245.6c18.3-0.6,36.7-0.1,55-0.3c2.5,0.1,5.2-0.4,7.3,1.3c-6.4,1-12.9,0.3-19.3,0.5
		c-14.3-0.2-28.7,0.3-43-0.3L304.8,245.6z"/>
</g>
<g id="_x23_fedacdff">
	<path class="st110" d="M446.8,245.6c6.6,6.5,16.5,7.9,25.3,6c8.1-1.5,16.2-2.9,24.3-4.6c0.6,3.3,1.2,6.5,1.3,9.9
		c-1.1,10.1-7.9,20.6-18.3,22.7c-0.5,2-1,4-1.3,6c-3.7,0.8-7.5,1.4-11.3,2.1c0.1-1,0.3-2.9,0.4-3.8c0.1-0.8,0.2-1.7,0.3-2.5
		c-6.2-1.1-12.1-4.2-16.3-8.9c3-0.9,7.2-0.7,8-4.6c-2.4-0.4-5.2-1.9-7.4-0.1c-0.6,1.1-1.2,2.2-1.7,3.3c-1.3-1.9-2.5-3.8-3.8-5.6
		C444.8,258.9,443.6,251.7,446.8,245.6 M476,256.9c-1.8,0.7-2.2,3.1-1.2,4.6c1.5,2.3,5.9,1.1,5.5-1.9
		C480.5,257.4,477.8,256.2,476,256.9 M452,259.8c-1.6,0.6-1.7,2.5-1.3,3.9c1,2.4,5.4,2.1,5.8-0.6C457.3,260.7,454,258,452,259.8
		 M461.1,265.2c-0.3,3.3,1.1,6.5,3.4,8.9c1,0.7,2.8,1.1,3.9,0.3c2-2.9,2.3-6.5,2.7-9.8C467.8,264.6,464.4,264.8,461.1,265.2
		 M472.6,267.6c2.6,1.5,5.7,1.6,8.5,0.6c1.3-0.5,2.8-1.8,1.5-3.2C479.2,263.7,474.7,264.2,472.6,267.6z"/>
</g>
<g id="_x23_6b8acaff">
	<path class="st111" d="M54.9,247.1c1.4-0.1,1.3,2.4,0.5,3.1C53.9,250.3,54.1,247.8,54.9,247.1z"/>
</g>
<g id="_x23_fefffeff">
	<path class="st112" d="M176.7,253.3c-3.5,0.5-8.1-2.2-7.6-6.2c4.5,0.1,8.9,0,13.4,0.3C181.8,250.1,179.6,252.6,176.7,253.3z"/>
</g>
<g id="_x23_cdccccff">
	<path class="st113" d="M305.1,249.2c5.9-1,11.8-0.3,17.7-0.5c15.7-0.1,31.4,0.4,47.1-0.3c1.3-0.1,2.6-0.1,3.8-0.1
		c1.8,0.4,3.5,1,5.3,1.6c-1.9,0.6-3.7,1.3-5.6,1.9c2,0.6,4,1.2,5.9,2.1c-1.8,0.5-3.5,0.9-5.3,1.3c1.8,0.7,3.6,1.4,5.4,2.1
		c-1.5,0.4-3,0.7-4.5,1.1c0.3,1.4,0.3,3,1.1,4.3c3.1,0.6,6.3,0.5,9.4,0.5c-3.2,0.2-6.4,0.4-9.5,0.6c0.8,4.2,1.6,8.3,2.3,12.5
		c0.8,4.6,1.8,9.2,2.6,13.8c-0.2,0.3-0.6,1-0.8,1.4c-0.6,0-1.8-0.1-2.3-0.1c-1.1-5-2-10-3-15c-0.8-4.3-1.6-8.6-2.5-12.9
		c-0.4-1.8-0.7-3.7-1.1-5.5l-0.3-1.2c-0.1-0.4-0.3-1.3-0.4-1.7c-21.3-0.5-42.6,0.6-63.9-0.5c21.4-0.7,42.8,0.4,64.1-0.6l0.4-1.1
		c-0.6-0.7-1.2-1.3-1.8-1.9c-1.6-0.8-3.4-1.3-5.3-1.2C344.3,249.4,324.7,249.6,305.1,249.2z"/>
</g>
<g id="_x23_d2dce8ff">
	<path class="st114" d="M305.1,249.2c19.6,0.3,39.2,0.2,58.8,0.1c1.8,0,3.6,0.4,5.3,1.2c-13.4,0.5-26.9,0.2-40.3,0.2
		c-8.1-0.1-16.3,0.3-24.5-0.3L305.1,249.2z"/>
</g>
<g id="_x23_9da3c8ff">
	<path class="st115" d="M186.2,255.2c1.2-1.5,2.3-3,3.5-4.5c0.2,1.6,0.3,3.2,0.5,4.8C188.9,255.3,187.5,255.3,186.2,255.2z"/>
</g>
<g id="_x23_fefefdff">
	<path class="st116" d="M70.8,252c10.3-0.1,20.6-0.2,30.9,0c-0.9,3.2-2.2,6.3-3.7,9.3c4.3,0.1,8.7,0.1,13,0c0.1-2.7,0.1-5.4,0.3-8
		l0.4-0.1c-0.2,3-0.3,5.9-0.4,8.9c-8.5-0.5-17,0.1-25.5,0c-1.4,0.2-4-0.6-4,1.6c-0.3,6.3-0.4,12.7,0.1,19c-0.2-0.6-0.4-1.8-0.6-2.3
		c-0.4-4.9,0.6-9.9-0.2-14.8c-1.1-2.2-3.7-3.1-5.5-4.7C72.6,258.9,71.7,255.3,70.8,252z"/>
</g>
<g id="_x23_537fccff">
	<path class="st117" d="M111.6,253.2l1.1-0.3c0.2,2.5,0.2,5.1,0.3,7.6c1.5,0.5,4.4,0.1,4.3,2.4c-0.3,6.7,0.7,13.4,0.2,20l-0.8,0.5
		c0-6.9,1.2-13.8,0-20.6c-1.9-0.2-3.7-0.5-5.6-0.7C111.3,259.1,111.4,256.2,111.6,253.2z"/>
</g>
<g id="_x23_cfd9e7ff">
	<path class="st118" d="M304.2,254c1.4-0.8,2.9-1.6,4.5-1.5c20.7-0.1,41.5,0.1,62.2-0.1l-0.4,1.1c-21.3,1-42.8-0.1-64.1,0.6
		C305.9,254.2,304.8,254.1,304.2,254z"/>
</g>
<g id="_x23_e9e9e9ff">
	<path class="st119" d="M190.2,255.5c0.6,0.1,1.2,0.2,1.9,0.4c0.5-0.1,1.1-0.3,1.6-0.4c1.5,0.1,2.9,0.2,4.4,0.2
		c8.1-0.4,16.3-0.6,24.4,0.1c0.2,6.8,0,13.7,0.1,20.5c0.1,0.6,0.2,1.8,0.2,2.4c-2.1-1.3-4.5-2.6-7-2.1c-4.2,0.4-7.6,4.4-7.2,8.6
		c-10,1.2-20.1,0.4-30.1,0.1c0.3-6.3,0.2-12.6,0.1-18.9c0-2,0-4,0-5.9c0-1.4,0.1-2.8,0.1-4.1c2.5-0.6,5-1.1,7.5-1.1
		C187.5,255.3,188.9,255.3,190.2,255.5z"/>
</g>
<g id="_x23_cdddecff">
	<path class="st120" d="M305,256.8c5.2-0.7,10.5-0.4,15.8-0.4c16.7,0.1,33.4-0.3,50,0.2l0.3,1.2c-19.1,0.5-38.2,0-57.3,0.2
		C310.8,258,307.7,258.3,305,256.8z"/>
</g>
<g id="_x23_ad5c0aff">
	<path class="st121" d="M476,256.9c1.9-0.8,4.5,0.4,4.3,2.7c0.4,3-4,4.2-5.5,1.9C473.7,260.1,474.2,257.6,476,256.9z"/>
</g>
<g id="_x23_af5a0cff">
	<path class="st122" d="M452,259.8c2-1.8,5.3,0.9,4.5,3.3c-0.3,2.7-4.8,3-5.8,0.6C450.4,262.3,450.4,260.4,452,259.8z"/>
</g>
<g id="_x23_4b91f9ff">
	<path class="st123" d="M176.5,261.4c0.5-0.2,1.6-0.7,2.1-1c0,2,0,4,0,5.9c-0.4,0-1.1-0.1-1.5-0.1c-0.2-0.6-0.5-1.7-0.7-2.3
		C176.4,263.1,176.4,262.3,176.5,261.4z"/>
	<path class="st123" d="M476.3,325.1c2.1-0.2,4.3-0.5,6.4-0.7c0.1,7.5,0,15,0,22.4c-0.4-0.4-1.1-1.1-1.5-1.4c-1.7-0.2-3.3-0.5-4.9-1
		C475.7,338,476,331.6,476.3,325.1z"/>
</g>
<g id="_x23_515050ff">
	<path class="st124" d="M81.7,263.7c0.1-2.1,2.7-1.4,4-1.6c8.5,0.2,17-0.4,25.5,0c1.9,0.2,3.7,0.5,5.6,0.7c1.1,6.9,0,13.7,0,20.6
		c-3.2-1-6.8-4.7-10.1-1.9c-2.1,2-1,4.9-0.1,7.2c-8.5-0.5-17.1-0.4-25.6,0c1.2-1.9,1.8-3.9,0.9-6.1C81.3,276.4,81.4,270,81.7,263.7
		 M98.1,272.9c-1.5,2,0.8,3.9,2.8,2.8C101.8,273.6,100.2,271.8,98.1,272.9z"/>
</g>
<g id="_x23_4b91fdff">
	<path class="st125" d="M444,262.2c0.8,1,1.6,2,2.4,3.1c1.3,1.9,2.5,3.8,3.8,5.6c0.3,0.4,0.8,1.1,1.1,1.4c4.2,4.8,10,7.9,16.3,8.9
		c-0.1,0.8-0.2,1.7-0.3,2.5c-2.5,0.4-4.8,1.7-5.4,4.4c-0.6,0.3-1.7,0.9-2.3,1.1c-0.9,1.8-1.8,3.5-2.7,5.4c-0.3,0.7-1,2-1.3,2.7
		l-0.2-0.2c-3.3-3.1-7-5.9-9.2-9.9c-0.2,0.4-0.7,1.1-0.9,1.5c0.1-0.5,0.2-1.6,0.3-2.1C445,278.5,444.6,270.4,444,262.2z"/>
</g>
<g id="_x23_514f50ff">
	<path class="st126" d="M389.2,264.8c3.1-1.5,6.9-0.5,10.2-0.6c11.7,0.6,23.4-0.2,35.1,0.5c0.1,7-0.5,14.1,0.4,21
		c0.4,3.1,0.1,6.1-0.3,9.2c1.1,0,3.3,0.1,4.4,0.1h0.6l-0.9,0.9c-1.6,0.2-3.1,0.3-4.7,0.3c-14.5-0.7-29,0.6-43.5-0.8
		c-0.1,0.2-0.3,0.6-0.4,0.8l-0.7,1.2c-0.4,0.1-1.1,0.3-1.5,0.4c-0.1-0.5-0.3-1.5-0.4-2.1c3.1-6,0.7-13.1,1.4-19.5
		C389,272.4,388.7,268.6,389.2,264.8 M409.8,277.7c0,1.2,0.1,2.5,0.2,3.7c1.2,0.1,2.5,0.2,3.8,0.2c-0.2-1.1-0.4-2.2-0.6-3.3
		C412.1,278,411,277.8,409.8,277.7z"/>
</g>
<g id="_x23_fdfefdff">
	<path class="st127" d="M461.1,265.2c3.3-0.4,6.6-0.6,10-0.7c-0.4,3.4-0.7,7-2.7,9.8c-1.1,0.8-2.9,0.4-3.9-0.3
		C462.2,271.7,460.8,268.4,461.1,265.2z"/>
</g>
<g id="_x23_fac0b2ff">
	<path class="st128" d="M472.6,267.6c2.1-3.3,6.6-3.9,10-2.6c1.3,1.4-0.2,2.7-1.5,3.2C478.4,269.2,475.2,269.1,472.6,267.6z"/>
</g>
<g id="_x23_78193cff">
	<path class="st129" d="M161.9,266.1c1.6-0.7,3.3-1.5,5-0.7v0.6C165.4,267,163.5,266.6,161.9,266.1z"/>
</g>
<g id="_x23_bc0203ff">
	<path class="st130" d="M156.3,274.5c0.2-3.3,1.1-7.6,5.1-8.2l0.5-0.2c1.6,0.4,3.5,0.9,5-0.1c0,1.5,0,3.1,0,4.6c0,1.3,0,2.5,0,3.8
		c-4,0.2-9.8-1.1-11.9,3.4c-1.8,3.8,0.8,7.5,4.4,8.8c-1.9-0.1-3.9-0.2-5.8-0.2c-4.5-0.1-9.3,0.7-13.5-1.3l-1.1-0.4
		c-1.3-3.3-1.3-7.3,1.5-9.8C145.8,274.3,151,274.6,156.3,274.5z"/>
</g>
<g id="_x23_bf0303ff">
	<path class="st131" d="M177.1,266.3c0.4,0,1.1,0.1,1.5,0.1c0.1,6.3,0.2,12.6-0.1,18.9c-0.3-0.4-1-1.1-1.4-1.4
		C176.6,278,176.8,272.2,177.1,266.3z"/>
	<path class="st131" d="M249.2,336.1c1.5-1.9,2.6-5.6,5.6-5.1c2-0.2,1.8,2.3,2.4,3.5c-0.2,0.4-0.7,1.2-0.9,1.6
		c-1.8,2.7-3.6,5.5-5.4,8.3c-1.9,2.5-3,6.4-6.7,6.6c-0.4,0-1.2,0.1-1.6,0.2C241.5,345.2,246.7,341,249.2,336.1z"/>
</g>
<g id="_x23_f9bdb4ff">
	<path class="st132" d="M451.9,267.7c2.1-1.8,5-0.4,7.4,0.1c-0.7,3.9-5,3.7-8,4.6c-0.3-0.4-0.8-1.1-1.1-1.4
		C450.7,269.8,451.2,268.7,451.9,267.7z"/>
</g>
<g id="_x23_096fd3ff">
	<path class="st133" d="M36.9,268.7c2.7-1.2,5.7-0.6,8.6-0.7c0.1,0.6,0.2,1.9,0.2,2.5l-0.6,0c-1.4,0.1-2.8,0.2-4.2,0.3
		c-0.3,0.4-0.8,1.1-1.1,1.5c-2,0-3.9,0-5.9,0c-0.5,0-1.6,0-2.1,0c0-0.6-0.1-1.8-0.1-2.5C33.5,269.8,35.3,269.5,36.9,268.7z"/>
</g>
<g id="_x23_7de5e3ff">
	<path class="st134" d="M41,270.9c1.4-0.1,2.8-0.2,4.2-0.3c0,1.8,0.1,3.6,0.1,5.5c-1.6,0.1-3.1,0.3-4.7,0.4
		c-2.1,0.2-4.2,0.4-6.3,0.6c-0.1-1.5-0.2-3.1-0.3-4.6c1.9,0,3.9,0,5.9,0C40.1,272.1,40.7,271.3,41,270.9z"/>
</g>
<g id="_x23_e9e2e4ff">
	<path class="st135" d="M166.9,270.6c3.1,0.2,6.2,0.3,9.2,0.3c0,2.6,0.1,5.3,0.1,7.9c-2.8-2-5.7-4.2-9.3-4.5
		C166.9,273.1,166.9,271.9,166.9,270.6z"/>
</g>
<g id="_x23_747470ff">
	<path class="st136" d="M98.1,272.9c2.1-1,3.7,0.7,2.8,2.8C98.9,276.8,96.6,274.9,98.1,272.9z"/>
</g>
<g id="_x23_0270ceff">
	<path class="st137" d="M52.5,275.4c2-1,4.2-0.6,6.4-0.6c0,4.8,0,9.5,0,14.3c-5.5-0.5-11-0.6-16.5-0.3c0.3-1.3,0.5-2.6,0.7-3.9
		c2.9-0.9,5.8-1.6,8.7-2.4c0-0.4,0.1-1.2,0.2-1.5C52.2,279,52.2,277.2,52.5,275.4z"/>
</g>
<g id="_x23_9e9389ff">
	<path class="st138" d="M58.9,274.8c2.2-0.1,4.5-0.2,6.8-0.4c2.2,3.1,5,5.6,8.3,7.5c-1,0.4-2.1,0.7-3.1,1.1c-2.8,0.4-6-0.5-8.6,1.1
		c-0.4,1.6-0.5,3.2-0.7,4.9c-0.7,0-2,0.1-2.7,0.1C58.9,284.3,58.9,279.5,58.9,274.8z"/>
</g>
<g id="_x23_fb9f88ff">
	<path class="st139" d="M40.6,276.5c1.6-0.1,3.1-0.3,4.7-0.4c-0.1,1.9,0.2,3.9,0.7,5.7l-0.2,0.6c-1.5,0.4-3.1,0.6-4.7,0.6l-0.5,0.1
		C40.3,280.9,40.3,278.7,40.6,276.5z"/>
</g>
<g id="_x23_f8afa1ff">
	<path class="st140" d="M208.6,285.2c-0.4-4.2,3-8.3,7.2-8.6c2.6-0.5,4.9,0.8,7,2.1c2.8,3.2,2.9,7.6,1.4,11.4
		c-4.8,5-12.2,3.3-18.5,3l-0.9-0.1c-0.9-1.6-1.6-3.3-2-5c1.9,0.4,3.8,0.6,5.7,0.8C208.5,287.6,208.5,286.4,208.6,285.2z"/>
</g>
<g id="_x23_0170cdff">
	<path class="st141" d="M222.6,276.3c3.2,0,7-0.4,9.3,2.3c2.4,1.8,3.2,4.8,3.1,7.7c-0.4,6.4,1.9,14.1-3,19.3
		c-3-4.8-6-11.7-12.7-11.7c-4.5-0.4-9.1-0.1-13.5-0.8c6.2,0.3,13.6,2,18.5-3c1.5-3.9,1.4-8.2-1.4-11.4
		C222.8,278,222.7,276.9,222.6,276.3z"/>
</g>
<g id="_x23_7c7a7bff">
	<path class="st142" d="M409.8,277.7c1.1,0.1,2.3,0.3,3.4,0.6c0.2,1.1,0.4,2.2,0.6,3.3c-1.3,0-2.5-0.1-3.8-0.2
		C409.9,280.1,409.8,278.9,409.8,277.7z"/>
</g>
<g id="_x23_1f69b6ff">
	<path class="st143" d="M47.5,281.1c1.5-0.1,3-0.2,4.5-0.3c0,0.4-0.1,1.2-0.2,1.5c-2.9,0.8-5.8,1.5-8.7,2.4
		c-0.2,1.3-0.5,2.6-0.7,3.9l-0.9,0.2c0.6-1.9,0.9-4.2-0.4-5.8c1.6,0,3.2-0.2,4.7-0.6C46.2,282.1,47.1,281.5,47.5,281.1z"/>
</g>
<g id="_x23_f89f89ff">
	<path class="st144" d="M73.9,281.9c2.3-1,4.8-1.3,7.3-1.5c0.1,0.6,0.4,1.8,0.6,2.3c0.9,2.1,0.3,4.2-0.9,6.1
		c-3.4,0.3-6.8,0.4-10.2,0.3c0-2,0.1-4.1,0.1-6.1C71.9,282.6,72.9,282.3,73.9,281.9z"/>
</g>
<g id="_x23_f89f88ff">
	<path class="st145" d="M106.7,281.6c3.3-2.9,6.8,0.9,10.1,1.9c0.1,1.9,0.3,3.8,0.4,5.7c-3.5,0.1-7.1,0-10.6-0.3
		C105.7,286.5,104.5,283.6,106.7,281.6z"/>
</g>
<g id="_x23_8aa4ccff">
	<path class="st146" d="M40.6,283.1l0.5-0.1c1.3,1.6,1,3.9,0.4,5.8l-0.4,0C40.6,287,40.6,285,40.6,283.1z"/>
</g>
<g id="_x23_8a8578ff">
	<path class="st147" d="M62.3,284.1c2.5-1.6,5.7-0.7,8.6-1.1c-0.1,2-0.1,4.1-0.1,6.1c-3-0.1-6.1-0.2-9.1-0.1
		C61.8,287.3,61.9,285.7,62.3,284.1z"/>
</g>
<g id="_x23_8f847aff">
	<path class="st148" d="M116.7,283.4l0.8-0.5c2.9-0.3,5.7,0,8.6,0.2c0.2,0.5,0.7,1.6,0.9,2.1c-0.1,1-0.4,2.9-0.5,3.8
		c-3.1-0.1-6.2,0-9.4,0.1C117,287.2,116.9,285.3,116.7,283.4z"/>
</g>
<g id="_x23_fbdccbff">
	<path class="st149" d="M437.8,284.3c2.9-0.7,5.5,0.6,7.7,2.4c-0.1,0.5-0.2,1.6-0.3,2.1c-0.7,1.2-1.5,2.4-2.2,3.6
		c0.8,0.8,1.6,1.6,2.4,2.3c-1.9,0.1-3.9,0.2-5.8,0.2H439c-1-2.1-2.2-4.1-3.1-6.3C435.9,287,437.1,285.7,437.8,284.3z"/>
</g>
<g id="_x23_0e3765ff">
	<path class="st150" d="M140.1,285.1c4.2,2,9,1.2,13.5,1.3c0,11.7,0,23.5,0,35.2c0.2,7.2-0.7,14.6,1.6,21.5
		c-7.5,0-14.9,0.1-22.4-0.1c0.4-4.4-1.8-8.2-5.4-10.7c6-1.1,12.1-0.6,18.2-0.3c-0.1-6.5,0-13-0.1-19.5l0-1.4
		c-28.7,0.4-57.4-0.2-86.1,0.3c4.1-0.8,8.3-0.4,12.4-0.4c20.3,0,40.6,0,60.9,0c4.1,0,8.3,0.3,12.4-0.2l0.6-1.1l-0.7-0.8
		c-6.2-0.7-12.4-0.1-18.7-0.3c1.3-0.9,2.5-1.8,3.8-2.7c3.9-4.8,3.7-13.9-2.9-16.1c0.5-0.3,1-0.5,1.5-0.8c-0.6,0-1.7,0-2.3-0.1
		c0.1-1,0.4-2.9,0.5-3.8C131.4,285.3,135.8,285,140.1,285.1z"/>
</g>
<g id="_x23_ccb7bbff">
	<path class="st151" d="M178.5,285.3c10,0.3,20.1,1,30.1-0.1c0,1.2-0.1,2.4-0.1,3.6c-1.9-0.2-3.8-0.4-5.7-0.8l-0.5-0.1l-0.8-0.3
		c-6.5-1.3-13.2,0.1-19.8-0.5c-1.1,0-2.1-0.4-2.8-1.2L178.5,285.3z"/>
</g>
<g id="_x23_0e3865ff">
	<path class="st152" d="M235,286.3c4-2,8.5-1.2,12.8-1.3c5.7,0.3,11.4,0.1,17.1,0.3c-0.1,0.5-0.2,1.6-0.2,2.1
		c-0.9,6.8-0.6,13.6-0.3,20.4c-10.3,0.5-20.6-0.1-30.9,0.4c-0.5-0.9-1-1.8-1.5-2.6C236.9,300.4,234.6,292.7,235,286.3z"/>
</g>
<g id="_x23_262424ff">
	<path class="st153" d="M461.9,288.2c0.6-2.7,2.8-3.9,5.4-4.4c-0.1,1-0.3,2.9-0.4,3.8c3.8-0.7,7.5-1.3,11.3-2.1
		c2.8,1.4,4.3,4.4,4.2,7.5c0.1,1.4,0.3,2.8,0.5,4.2c-5.2,1.1-10.7,1.2-15.9-0.1c-2.1-1.1-4.1-2.2-6.2-3.3
		C461.1,292,461.5,290.1,461.9,288.2z"/>
</g>
<g id="_x23_ec4355ff">
	<path class="st154" d="M485.6,284.9c2.4-0.1,4.9,0.1,7.3,0.8c-0.2,0-0.6,0.1-0.7,0.2c-1.6,0.4-3.3,0.7-5,1.1
		c-1.2,3.4-2.2,6.9-3.1,10.5c-0.3,0-1-0.1-1.3-0.1c-0.2-1.4-0.4-2.8-0.5-4.2C482.3,290,484.1,287.4,485.6,284.9z"/>
	<path class="st154" d="M479,309.2c0.4,0.1,1.3,0.3,1.7,0.4c-0.2,1.5-0.3,3.1-0.4,4.7c-1.3,1.4-2.7,2.7-4,4.1
		c-8.6,0.2-17.2-0.2-25.8,0.1c0,0.8-0.1,2.4-0.1,3.2c-0.5-1.4-0.9-2.7-1.4-4.1l-0.2-0.6c2.2,0.2,4.4,0.3,6.5,0.3
		c1.1,0,2.2-0.1,3.4-0.1c5.7-0.2,11.4-0.1,17.2-0.1c1.1-1.4,2.2-2.8,3.4-4.2C479.1,311.6,479.1,310.4,479,309.2z"/>
	<path class="st154" d="M28.8,332.3c1.8,0,3.6,0.1,5.4,0.1c27.9,0.5,55.8,0.1,83.7,0.2c2.8,0,5.7,0,8.5-0.4c0.3,0,0.9,0.1,1.1,0.1
		c3.6,2.5,5.8,6.2,5.4,10.7l0,0.7c-0.6,3.7-3.5,6.3-6.4,8.4c-29.2,0.4-58.4,0.1-87.6,0.2c-3.3,0-6.6,0-9.8-0.2
		c0-0.8-0.1-2.4-0.1-3.3c24.6,0,49.3,0,73.9,0c2.5-0.1,5.5,0.2,7.1-2.1c2.7-3.9,1.5-11.6-4.1-11.8c-25.6-0.2-51.3,0-77,0
		C28.8,334.4,28.8,333,28.8,332.3z"/>
</g>
<g id="_x23_ebe3e3ff">
	<path class="st155" d="M175.5,287.2c8.9,0.9,17.9,0.1,26.8,0.7l0.5,0.1c-8.8,0.5-17.7,0-26.5,0.3c0,1.7,0,3.4,0,5
		c-3.3,0.2-6.6,0.1-9.9-0.1l0.6-0.7C170,290.9,173.1,289.6,175.5,287.2z"/>
</g>
<g id="_x23_f7b0a4ff">
	<path class="st156" d="M446.1,287.3c2.2,4,6,6.8,9.2,9.9c-2.1,0.4-4.1,0.9-6.2,1.1c-1.3-1.2-2.5-2.4-3.8-3.6
		c-0.8-0.8-1.6-1.6-2.4-2.3c0.8-1.2,1.5-2.4,2.2-3.6C445.5,288.4,445.9,287.7,446.1,287.3z"/>
</g>
<g id="_x23_04bac1ff">
	<path class="st157" d="M487.1,286.9c1.6-0.4,3.3-0.7,5-1.1c2.5,3.3,0.9,7.3,0.4,10.9c-2.8,0.1-5.6,0.3-8.4,0.6
		C484.9,293.9,485.9,290.3,487.1,286.9z"/>
</g>
<g id="_x23_e8682fff">
	<path class="st158" d="M28.9,288.5c1.8,0,3.7,0.1,5.5,0.2c2.2,0.1,4.5,0.2,6.7,0.2l0.4,0c5.4,0.2,10.9,0,16.3,0.2
		c5.4,2.3,11.4,1,17.1,1.3c10.7,0.3,21.5-0.5,32.2,0.4l0.9,0.9c-20.7-0.5-41.5,0-62.2-0.2c-5.6-0.1-11.3,0.6-16.9,0
		C28.9,290.7,28.9,289.3,28.9,288.5z"/>
</g>
<g id="_x23_be0100ff">
	<path class="st159" d="M176.3,288.3c8.8-0.3,17.7,0.2,26.5-0.3c0.4,1.8,1.1,3.5,2,5c-4.8-0.5-9.6-0.1-14.4-0.2
		c-1-0.7-1.9-1.5-2.8-2.2c-0.3,0.5-1.1,1.6-1.4,2.1c-3.2,0.6-6.6,0.3-9.9,0.5C176.3,291.6,176.3,289.9,176.3,288.3z"/>
</g>
<g id="_x23_b19caeff">
	<path class="st160" d="M459.6,289.3c0.6-0.3,1.7-0.9,2.3-1.1c-0.4,1.9-0.8,3.8-1.1,5.8c-1.3,0.2-2.6,0.5-3.8,0.8
		C457.8,292.9,458.7,291.1,459.6,289.3z"/>
</g>
<g id="_x23_bd0205ff">
	<path class="st161" d="M164.8,291.1c0.6,0.4,1.7,1.1,2.2,1.5l-0.6,0.7c-0.4-0.1-1.3-0.3-1.8-0.4
		C164.7,292.4,164.8,291.5,164.8,291.1z"/>
	<path class="st161" d="M225.3,333.1c1-1.9,3.1-2.1,5-2.3c0.3,1.3,0.6,2.6,0.9,3.9c-0.2,0.4-0.6,1.2-0.8,1.6c-1.5,1.9-2.9,4-4.1,6.1
		c-0.4,0.7-0.9,1.4-1.3,2.1c-0.3,0.4-0.8,1.2-1.1,1.6c-0.4,0.5-1,1.4-1.4,1.9c-0.7,0.9-1.5,1.8-2.2,2.8c-0.7,0-2.2,0.1-2.9,0.1
		c-0.4-1.3-1.7-2.8-0.8-4.2C219.2,341.9,222.4,337.6,225.3,333.1z"/>
</g>
<g id="_x23_f0eff0ff">
	<path class="st162" d="M28.9,291.5c5.6,0.5,11.2-0.2,16.9,0c20.7,0.2,41.5-0.3,62.2,0.2c3.4,2.7,4.2,7.7,2.2,11.4
		c-1.3,2.2-4.1,2.2-6.4,2.2c-25-0.1-50,0-75,0C28.9,300.7,28.8,296.1,28.9,291.5z"/>
</g>
<g id="_x23_672b2aff">
	<path class="st163" d="M190.4,292.8c4.8,0.1,9.6-0.3,14.4,0.2l0.9,0.1c4.5,0.7,9,0.4,13.5,0.8c-7.1,0.5-14.3,0.8-21.5,1
		C195.2,294.9,192.4,294.7,190.4,292.8z"/>
</g>
<g id="_x23_f13f54ff">
	<path class="st164" d="M371,295.1c2-2.7,5.5-2.6,8.5-2.9c1.7,0.2,3.4,0.4,5.1,0.7c0.8,1.2,1.5,2.5,2.2,3.8
		C381.7,296.5,375.4,298.7,371,295.1z"/>
</g>
<g id="_x23_cb5860ff">
	<path class="st165" d="M384.6,292.9c0.4,0.1,1.2,0.3,1.6,0.4c0.3,0.6,0.9,1.9,1.2,2.5c0.1,0.5,0.3,1.5,0.4,2.1
		c-5.7,1-11.5,0.7-17.2,0.3l-0.2-0.2c0.2-0.7,0.5-2.1,0.6-2.8l0-0.1c4.4,3.6,10.7,1.4,15.9,1.5C386.1,295.4,385.4,294.1,384.6,292.9
		z"/>
</g>
<g id="_x23_3b3a3bff">
	<path class="st166" d="M219.2,293.9c6.7,0,9.6,6.9,12.7,11.7c0.5,0.9,1,1.8,1.5,2.6c2.4,4.2,5,8.2,7.4,12.3c0.1,0.5,0.3,1.5,0.4,2
		c-3.2,0.3-7.3,0.2-8.6,3.9c-1.7-3.6-5-6.1-9.1-6.1c-2.5-3.9-4.8-8-7-12c-3.1-1.1-6.5-0.9-9.8-0.9c-2.6-4.5-4.7-9.5-9.1-12.5
		C204.9,294.7,212.1,294.5,219.2,293.9z"/>
	<path class="st166" d="M438.7,295.9c2.3-0.2,4.5-0.3,6.8-0.3c-0.3,0.7-0.8,2-1.1,2.7c-6.9-0.1-13.8-1.3-20.7-1
		c-11.5,0.2-22.9-0.3-34.4,0.2l0.7-1.2c14.6,0,29.3,0.2,43.9,0C435.5,296.2,437.1,296.1,438.7,295.9z"/>
</g>
<g id="_x23_ffe1cfff">
	<path class="st167" d="M456.9,294.7c1.3-0.3,2.5-0.5,3.8-0.8c2,1.1,4.1,2.2,6.2,3.3c-3.7,1.1-7.6,1.2-11.3,0.2
		C456,296.7,456.6,295.3,456.9,294.7z"/>
</g>
<g id="_x23_b0aaaeff">
	<path class="st168" d="M439.6,294.9c1.9-0.1,3.9-0.2,5.8-0.2c1.2,1.2,2.5,2.4,3.8,3.6c-1.6,0-3.2,0-4.8-0.1c0.3-0.7,0.8-2,1.1-2.7
		c-2.3,0.1-4.5,0.1-6.8,0.3L439.6,294.9z"/>
</g>
<g id="_x23_6296c1ff">
	<path class="st169" d="M484.1,297.4c2.8-0.4,5.6-0.5,8.4-0.6c6.4-0.5,12.9,0.1,19.3,0c5.1,0.1,10.2-0.4,15.3,0.5l-1.3,0.3
		c-9,0.5-18.2-0.7-27.1,0.7c-4.4,0.5-8.9,0.7-13.3,0.1C485.1,298.2,484.4,297.6,484.1,297.4z"/>
</g>
<g id="_x23_f4f4f4ff">
	<path class="st170" d="M364.5,298.3c2-0.1,3.9-0.2,5.9-0.3l0.2,0.2c-2,0.2-4,0.3-6.1,0.4c0.1,2.1,0.1,4.1,0.1,6.2
		c2.6,0.1,5.2,0.1,7.9,0.1c0.1,7.2,0,14.5,0.1,21.7c-11.3,0.1-22.6-0.1-33.9,0.5c-18.6-0.1-37.3,0.1-55.9-0.1
		c-0.4,5.1-0.5,10.2-0.4,15.3c-0.4,0-1.3,0-1.7,0l0.8,0c0.9-5,0.6-10.1,0.6-15.1c-2.4,0-4.7,0-7,0c-0.1-7.5,0-15,0-22.5
		c29.6,0,59.3,0,88.9,0C364,302.5,364.2,300.4,364.5,298.3 M323,310.1c-3,1-4.4,4.9-3.1,7.7c1.6,4.2,8.6,5.2,10.7,1
		C333,314,328,308,323,310.1z"/>
	<path class="st170" d="M378.6,304.8c7.2,0,14.3,0,21.4,0c0.1,7.4-0.2,14.9,0.2,22.3c-7.2,0.3-14.4,0.1-21.6,0.1
		C378.6,319.7,378.6,312.3,378.6,304.8z"/>
</g>
<g id="_x23_96bcfbff">
	<path class="st171" d="M498.7,298.3c9-1.4,18.1-0.2,27.1-0.7l1.2,0.9C517.7,298.7,508.2,299.1,498.7,298.3z"/>
</g>
<g id="_x23_e2c6b1ff">
	<path class="st172" d="M498.7,298.3c9.4,0.8,18.9,0.4,28.4,0.2c-0.2,2.1-0.2,4.2-0.3,6.3c-2,0-4,0-6,0c-2,0-4,0-6,0
		c-5.2,0-10.3,0-15.5,0C499.1,302.6,498.9,300.4,498.7,298.3z"/>
</g>
<g id="_x23_ac5a0eff">
	<path class="st173" d="M400.1,304.8c1.8,0,3.6,0,5.4,0.1c0.3,15.4-0.1,30.9-0.1,46.3c-1.6,0-3.2,0-4.8,0c-0.2-8,0.2-16-0.3-24
		C399.8,319.7,400.2,312.2,400.1,304.8z"/>
	<path class="st173" d="M514.8,304.8c2,0,4,0,6,0c0,15.8-0.2,31.6,0,47.4c-2.1,0.1-4.1,0.1-6.2,0
		C514.8,336.4,514.6,320.6,514.8,304.8z"/>
</g>
<g id="_x23_7b8097ff">
	<path class="st174" d="M405.5,304.8l0.6,0c0.3,7.5,0,14.9,0.1,22.4c8,0,16.1-0.1,24.1,0.1c-0.2,0.5-0.7,1.4-1,1.9
		c-1.4-0.7-3-1.2-4.6-1.1c-6,0-11.9-0.1-17.9,0.2c-0.1,8-0.2,16.1,0.1,24.1c-2.6,0.3-5.3,0.3-7.9,0c0.3-8,0.2-16.1,0.1-24.1
		c-6.8-0.2-13.6-0.2-20.5,0c0-0.2,0-0.7,0-1c7.2,0,14.4,0.2,21.6-0.1c0.5,8,0.1,16,0.3,24c1.6,0,3.2,0,4.8,0
		C405.4,335.7,405.8,320.3,405.5,304.8z"/>
</g>
<g id="_x23_f5f4f4ff">
	<path class="st175" d="M406.1,304.8c13.5-0.1,27.1,0,40.6-0.1c0.1,1.2,0.1,2.4,0.2,3.6c-2.2,0.1-5-0.1-6.1,2.4
		c-3,5-6.3,9.8-8.7,15.1c0.7,2.2,3.5,2.8,5.1,4.1c-2.1,3.4-4.3,6.8-6.1,10.4c-1.3-0.2-2.7-0.5-3.9-0.8c-1.6-0.8-1.2-2.8-1.6-4.3
		c1.4-1.9,2.7-3.9,3.8-6c0.2-0.5,0.8-1.4,1-1.9c-8-0.1-16.1-0.1-24.1-0.1C406.1,319.8,406.4,312.3,406.1,304.8z"/>
</g>
<g id="_x23_739eedff">
	<path class="st176" d="M446.7,304.7c4.4-0.1,8.9-0.1,13.3,0c-2.4,3.8-1.8,8.2-1.4,12.4c-1.1,0-2.2,0.1-3.4,0.1c0-2.2,0-4.5-0.1-6.7
		c0-0.6-0.2-1.7-0.2-2.2c-2.7-0.1-5.4,0-8,0C446.9,307.1,446.8,305.9,446.7,304.7z"/>
</g>
<g id="_x23_252428ff">
	<path class="st177" d="M470.6,304.8c4,0,8.1,0,12.2,0c0,1.1-0.1,2.1-0.1,3.2c-0.5,0.4-1.4,1.2-1.9,1.6c-0.4-0.1-1.3-0.3-1.7-0.4
		C476,308.2,473.2,306.6,470.6,304.8z"/>
</g>
<g id="_x23_ac5a0fff">
	<path class="st178" d="M482.8,304.8c2.1,0,4.1,0,6.2,0c-0.3,15.3-0.2,30.5-0.1,45.8c-2,0.1-4,0.2-6,0.5c-0.1-1.4-0.1-2.8-0.2-4.3
		c0-7.5,0.1-15,0-22.4c0-5.5,0-10.9-0.1-16.4C482.7,306.9,482.7,305.9,482.8,304.8z"/>
</g>
<g id="_x23_4a91feff">
	<path class="st179" d="M489,304.8c3.4,0,6.9,0,10.3,0c5.2,0,10.3,0,15.5,0c-0.2,15.8,0,31.6-0.1,47.4c-8.6-0.2-17.3-0.7-25.8,0.1
		v-1.7C488.8,335.3,488.6,320,489,304.8z"/>
	<path class="st179" d="M443.5,335.5c1.1-4.5,2.1-9,3.2-13.6c1.4,1.1,2.8,2.3,4.2,3.5c0.1,0.2,0.4,0.7,0.5,0.9
		c5.5,0.1,11-0.3,16.5,0.3c1.2,5.8,0.2,12,0.5,18c-4.4,0.2-9.9,1.3-10.7,6.5c8.4,0.4,16.7,0.3,25.1,0.1c-0.2,0.3-0.5,1-0.7,1.4
		c-20.8-0.7-41.6-0.4-62.3-0.5c-4.3-0.1-8.6-0.1-12.9,0.4c-0.3-8-0.2-16.1-0.1-24.1c6-0.2,11.9-0.2,17.9-0.2
		c1.6-0.1,3.1,0.4,4.6,1.1c-1.1,2.1-2.5,4-3.8,6c-0.9,1.4-1.8,2.9-2.3,4.6c1.1,2.9,4.1,3.2,6.8,2.8c0.2-0.6,0.8-1.7,1-2.2
		c1.8-3.6,4-7,6.1-10.4l0.6-1c-0.4,1.8-0.8,3.7-1.2,5.5c-0.9,4-2.7,7.9-2.2,12c-0.6-0.5-1.1-1-1.6-1.6c0.4,2.4,0.5,6.7,4.1,6.1
		c2.5,0.6,3.4-2,3.9-3.9C441.5,343.1,442.5,339.3,443.5,335.5z"/>
</g>
<g id="_x23_4c9adcff">
	<path class="st180" d="M233.5,308.2c10.3-0.5,20.6,0.1,30.9-0.4c6.2,0,10.7,6.7,8,12.3c-2.3,5.5-9,5.1-14,4.8
		c-2.3-1.8-4.2-4.7-7.5-4.3c-3.3-0.6-5.7,1.6-7.7,3.8c-0.8-1.3-1.5-2.6-2.3-3.9C238.5,316.4,235.8,312.4,233.5,308.2z"/>
</g>
<g id="_x23_4c9addff">
	<path class="st181" d="M165,308.3c8.5-0.5,17-0.4,25.5-0.1c3.3,5.4,6.4,11,9.6,16.5c-6.8,0.5-13.6,0.2-20.4,0.3
		c-4.7-0.3-10.1,1.1-14.4-0.8C164.6,318.9,165.2,313.6,165,308.3z"/>
</g>
<g id="_x23_4c9bdcff">
	<path class="st182" d="M207.9,308.4c2.9,0,5.8-0.1,8.7-0.1c2.3,4,4.6,8.1,7,12c-2,0.6-3.8,1.8-5.5,3c-0.9-0.3-1.7-0.7-2.5-1.2
		C213.2,317.4,210.3,313,207.9,308.4z"/>
</g>
<g id="_x23_f9c1b4ff">
	<path class="st183" d="M440.8,310.7c1.1-2.5,3.9-2.3,6.1-2.4c2.7-0.1,5.4-0.1,8,0c0,0.6,0.2,1.7,0.2,2.2c-3.9,0.1-8-0.3-11.8,0.8
		c-3.4,5.2-2.8,12-5.6,17.6l-0.6,1c-1.7-1.3-4.5-1.9-5.1-4.1C434.5,320.5,437.9,315.7,440.8,310.7z"/>
</g>
<g id="_x23_02bac5ff">
	<path class="st184" d="M480.8,309.6c0.5-0.4,1.4-1.2,1.9-1.6c0.1,5.5,0.1,10.9,0.1,16.4c-2.2,0.2-4.3,0.5-6.4,0.7
		c-0.3,6.4-0.6,12.9,0,19.4c1.6,0.5,3.2,0.7,4.9,1c0.4,0.3,1.2,1.1,1.5,1.4c0,1.4,0.1,2.8,0.2,4.3c-8.4,0.2-16.7,0.3-25.1-0.1
		c0.8-5.2,6.3-6.3,10.7-6.5c-0.4-6,0.7-12.1-0.5-18c-5.5-0.6-11-0.1-16.5-0.3c-0.1-0.2-0.4-0.6-0.5-0.9c-0.2-1.3-0.4-2.5-0.5-3.8
		c0-0.8,0.1-2.4,0.1-3.2c8.6-0.3,17.2,0.1,25.8-0.1c1.4-1.4,2.7-2.7,4-4.1C480.4,312.7,480.5,311.1,480.8,309.6z"/>
</g>
<g id="_x23_cbcbcbff">
	<path class="st185" d="M323,310.1c5-2,10,3.9,7.7,8.6c-2.1,4.3-9.1,3.2-10.7-1C318.6,315,320.1,311.1,323,310.1z"/>
</g>
<g id="_x23_fdd9ccff">
	<path class="st186" d="M443.4,311.3c3.8-1.1,7.9-0.7,11.8-0.8c0.1,2.2,0.1,4.5,0.1,6.7c-2.2,0-4.4-0.1-6.5-0.3
		c-2.3-0.6-2.4,2.2-1.8,3.7c-0.1,0.3-0.2,1-0.3,1.3c-1,4.5-2.1,9-3.2,13.6c-2.3-0.4-4.6-0.8-6.9-1.1c0.4-1.8,0.8-3.7,1.2-5.5
		C440.6,323.3,440,316.5,443.4,311.3z"/>
</g>
<g id="_x23_4fdde7ff">
	<path class="st187" d="M59.4,311.5c28.7-0.5,57.4,0.1,86.1-0.3l0,1.4c-25.2,0.2-50.5,0-75.7,0.1c-4,0-7.9-0.1-11.9-0.4L59.4,311.5z
		"/>
</g>
<g id="_x23_eff0efff">
	<path class="st188" d="M57.4,328c-5.9-3-5.4-12.9,0.5-15.7c4,0.2,7.9,0.4,11.9,0.4c25.2-0.1,50.5,0.1,75.7-0.1c0,6.5,0,13,0.1,19.5
		c-6-0.3-12.2-0.8-18.2,0.3c-0.3,0-0.9-0.1-1.1-0.1c-0.1-0.2-0.3-0.7-0.3-1c5.3,0.4,10.6,0.3,16,0.2c2.1,1.3,3.9-2.6,1.6-3.1
		c-26.9,0.3-53.8,0-80.7,0.1C61,328.5,59.1,328.7,57.4,328z"/>
</g>
<g id="_x23_bbccf1ff">
	<path class="st189" d="M447,320.6c-0.7-1.5-0.5-4.3,1.8-3.7l0.2,0.6C448.5,318.7,447.7,319.7,447,320.6z"/>
</g>
<g id="_x23_628db9ff">
	<path class="st190" d="M447,320.6c0.7-1,1.5-2,2-3.1c0.5,1.4,0.9,2.7,1.4,4.1c0.2,1.3,0.4,2.5,0.5,3.8c-1.4-1.2-2.8-2.3-4.2-3.5
		C446.8,321.6,446.9,321,447,320.6z"/>
</g>
<g id="_x23_ef4152ff">
	<path class="st191" d="M218.2,323.2c1.7-1.2,3.5-2.3,5.5-3c4.1,0.1,7.3,2.6,9.1,6.1c0,2.5,0.1,5.2-1.1,7.5l-0.4,0.9
		c-0.3-1.3-0.6-2.6-0.9-3.9c-1.9,0.2-4,0.4-5,2.3c-2.9,4.5-6.1,8.8-8.6,13.5c-1,1.4,0.3,2.8,0.8,4.2c-0.7,0-2.1,0-2.8,0l-1-0.2
		c-0.8-0.8-1.6-1.6-2.4-2.5c0-1.4-0.1-2.9-0.1-4.3l-0.1-0.2c2.2-2.9,4.7-5.8,5.9-9.3C216.6,330.5,215.4,326.4,218.2,323.2z"/>
</g>
<g id="_x23_164887ff">
	<path class="st192" d="M240.9,320.6c0.8,1.3,1.5,2.6,2.3,3.9c-1.4,3.1-0.9,6.5,0.1,9.5c-1.8,3.3-3.7,6.4-6,9.4
		c-1.5-3.4-3.6-6.5-5.7-9.5c1.2-2.3,1.1-5,1.1-7.5c1.3-3.7,5.4-3.6,8.6-3.9C241.2,322.1,241,321.1,240.9,320.6z"/>
	<path class="st192" d="M215.7,322.1c0.8,0.5,1.7,0.8,2.5,1.2c-2.8,3.1-1.6,7.3-1.1,11c-1.2,3.5-3.7,6.3-5.9,9.3
		c-2.1-4.3-4.6-8.4-7.1-12.4c0.8-2.1,1.5-4.4,3.3-5.9C209.6,323.1,212.8,322.8,215.7,322.1z"/>
</g>
<g id="_x23_f04052ff">
	<path class="st193" d="M243.2,324.5c2-2.2,4.4-4.5,7.7-3.8c3.3-0.4,5.2,2.6,7.5,4.3c0.5,3.2,0.7,6.7-1.2,9.6
		c-0.6-1.3-0.4-3.7-2.4-3.5c-3-0.5-4.1,3.2-5.6,5.1c-2.5,4.9-7.7,9.1-6.6,15.1c-0.3,0-1,0.1-1.3,0.1c-0.5-0.3-1.4-0.8-1.8-1
		c-0.7-0.7-1.5-1.5-2.2-2.2c0-1.5,0-3,0-4.5l0-0.2c2.3-2.9,4.3-6.1,6-9.4C242.2,330.9,241.8,327.5,243.2,324.5z"/>
</g>
<g id="_x23_c8c6c7ff">
	<path class="st194" d="M282.9,327c18.6,0.1,37.3,0,55.9,0.1c11.3-0.6,22.6-0.4,33.9-0.5l0,1.3c-9.4,0.1-18.8-0.2-28.2,0.1
		c0,4.5-0.2,9,0.2,13.5c0.1,0.1,0.3,0.4,0.4,0.5c-20.9,0.7-41.8,0.1-62.7,0.3C282.4,337.2,282.5,332.1,282.9,327z"/>
</g>
<g id="_x23_4992fdff">
	<path class="st195" d="M275.1,327.2c2.3,0,4.7,0,7,0c0,5,0.3,10.1-0.6,15.1c-2.5-0.1-4.9-0.2-7.3-0.3
		C275.2,337.1,275.2,332.1,275.1,327.2z"/>
</g>
<g id="_x23_4991ffff">
	<path class="st196" d="M344.6,328c9.4-0.1,18.7-0.1,28.1,0c0,4.5,0,9.1,0,13.6c-9.3,0-18.5,0.1-27.8-0.1
		C344.4,337,344.6,332.5,344.6,328z"/>
</g>
<g id="_x23_4991fdff">
	<path class="st197" d="M378.7,328.2c6.8-0.2,13.7-0.2,20.5,0c0.1,8,0.2,16.1-0.1,24.1c-4.4-0.4-8.8-0.4-13.2-0.4
		c1.4-2.1,3.6-4.5,1.9-7c-1.6-3.4-6.1-2.2-9.1-2.6C378.7,337.5,378.7,332.9,378.7,328.2z"/>
</g>
<g id="_x23_4697a2ff">
	<path class="st198" d="M34.8,330.6c28.3,0.2,56.7,0.1,85,0.1c2.1,0,4.1,0.3,6.2,0.7c0.1,0.2,0.2,0.7,0.3,1
		c-2.8,0.3-5.6,0.4-8.5,0.4c-27.9-0.2-55.8,0.2-83.7-0.2C34.3,332,34.6,331.1,34.8,330.6z"/>
</g>
<g id="_x23_f0efefff">
	<path class="st199" d="M28.9,335.1c25.7,0,51.3-0.1,77,0c5.6,0.2,6.8,7.9,4.1,11.8c-1.7,2.2-4.7,2-7.1,2.1c-24.6,0-49.3,0-73.9,0
		C28.9,344.3,28.9,339.7,28.9,335.1z"/>
</g>
<g id="_x23_036ecaff">
	<path class="st200" d="M231.2,334.7l0.4-0.9c2.1,3,4.2,6.1,5.7,9.5l0,0.2c-2.4-0.1-4.7-0.1-7-0.3c-1.3-0.2-2.6-0.6-4-0.9
		c1.3-2.1,2.6-4.1,4.1-6.1C230.6,335.9,231,335.1,231.2,334.7z"/>
</g>
<g id="_x23_9498a3ff">
	<path class="st201" d="M423.3,339.7c0.5-1.6,1.4-3.1,2.3-4.6c0.4,1.5,0,3.5,1.6,4.3c1.3,0.3,2.6,0.6,3.9,0.8
		c-0.2,0.6-0.8,1.7-1,2.2C427.4,343,424.4,342.6,423.3,339.7z"/>
</g>
<g id="_x23_f7f4f2ff">
	<path class="st202" d="M436.6,334.4c2.3,0.4,4.6,0.7,6.9,1.1c-1,3.8-2,7.6-2.9,11.5c-2.1,0.7-4.8,1.8-6.3-0.6
		C433.9,342.3,435.7,338.4,436.6,334.4z"/>
</g>
<g id="_x23_a95d0fff">
	<path class="st203" d="M159.4,343.1c1.9,0,3.8,0,5.7,0.1c0,3,0,5.9,0,8.9c-2,0.1-4,0.1-6,0c0-2.8,0-5.6,0.2-8.5L159.4,343.1z"/>
</g>
<g id="_x23_736b78ff">
	<path class="st204" d="M225,344.5c0.4-0.7,0.9-1.4,1.3-2.1c1.3,0.3,2.6,0.6,4,0.9c0,3,0,5.9,0,8.9c-2.1,0.4-4.2,0.7-6.3,0.1
		c-0.5-1.5-1-2.9-1.4-4.4c0.3-0.5,1-1.4,1.4-1.9c0.3,1.6,0.6,3.3,0.8,4.9c1.4,0,2.7,0,4,0c0-2.1,0-4.2,0-6.3
		C227.5,344.6,226.3,344.5,225,344.5z"/>
</g>
<g id="_x23_fbfbf0ff">
	<path class="st205" d="M260.6,343.4c3.8,0.1,7.6,0.3,11.4-0.4c-0.7,0.2-1.3,0.5-2,0.8c-2,0.2-4,0.2-5.9,0.2
		c0.1,2.4,0.1,4.9,0.3,7.3c-0.4,0.2-1.3,0.7-1.8,0.9C260.3,349.7,260,346.6,260.6,343.4z"/>
</g>
<g id="_x23_f9f9faff">
	<path class="st206" d="M378.7,342.2c3,0.4,7.5-0.8,9.1,2.6c1.7,2.5-0.6,4.9-1.9,7c-2.4,0-4.8,0.1-7.2,0.2
		C378.6,348.8,378.7,345.5,378.7,342.2z"/>
</g>
<g id="_x23_4992fcff">
	<path class="st207" d="M132.9,343.8c8.8-0.1,17.7,0,26.5-0.1c-0.2,2.8-0.2,5.6-0.2,8.5c-10.9-0.5-21.8-0.2-32.8,0
		C129.4,350.1,132.2,347.5,132.9,343.8z"/>
</g>
<g id="_x23_4a92fdff">
	<path class="st208" d="M165.2,343.2c15.4,0.6,30.8-0.2,46.1,0.5c0,1.4,0.1,2.8,0.1,4.3c0.8,0.9,1.5,1.7,2.4,2.5l1,0.2l-0.4,1.5
		c-7.8-0.6-15.7-0.2-23.5-0.3c-8.5,0.2-17.1-0.2-25.6,0.2C165.2,349.2,165.2,346.2,165.2,343.2z"/>
</g>
<g id="_x23_4b92fcff">
	<path class="st209" d="M230.3,343.2c2.3,0.2,4.7,0.3,7,0.3c0,1.5,0,3,0,4.5c0.7,0.8,1.4,1.5,2.2,2.2c0.4,0.3,1.4,0.8,1.8,1
		c-3.7,0.3-7.3,0.2-11,0.8C230.2,349.2,230.2,346.2,230.3,343.2z"/>
</g>
<g id="_x23_4993fcff">
	<path class="st210" d="M250.9,344.4c3.1-1.4,6.5-1.1,9.7-1c-0.6,3.1-0.3,6.3,2,8.7c-6.1-1-12.5,1-18.4-1.1
		C247.9,350.9,249,346.9,250.9,344.4z"/>
</g>
<g id="_x23_ab5c12ff">
	<path class="st211" d="M225,344.5c1.3,0,2.5,0.1,3.8,0.1c0,2.1,0,4.2,0,6.3c-1.3,0-2.7,0-4,0c-0.3-1.6-0.5-3.3-0.8-4.9
		C224.2,345.7,224.8,344.9,225,344.5z"/>
</g>
<g id="_x23_b05c0dff">
	<path class="st212" d="M264.1,344c2,0,4,0,5.9-0.2c0,2.4,0,4.9-0.1,7.3c-1.9-0.1-3.7-0.1-5.6,0.1
		C264.2,348.8,264.2,346.4,264.1,344z"/>
</g>
<g id="_x23_a09390ff">
	<path class="st213" d="M432.7,344.9c0.5,0.5,1.1,1.1,1.6,1.6c1.5,2.4,4.2,1.2,6.3,0.6c-0.5,1.9-1.4,4.5-3.9,3.9
		C433.3,351.5,433.1,347.3,432.7,344.9z"/>
</g>
<g id="_x23_6d75b8ff">
	<path class="st214" d="M220.4,350.6c0.7-0.9,1.5-1.8,2.2-2.8c0.5,1.5,1,2.9,1.4,4.4c-3.2-1.2-6.4,0.5-9.7,0l0.4-1.5
		c0.7,0,2.1,0,2.8,0C218.2,350.7,219.6,350.7,220.4,350.6z"/>
</g>
<g id="_x23_3b72c7ff">
	<path class="st215" d="M241.3,351.3c0.3,0,1-0.1,1.3-0.1c0.4,0,1.2-0.1,1.6-0.2c5.9,2.1,12.3,0.1,18.4,1.1
		c5.4,0.8,10.8,0.1,16.2,0.2c31.3,0,62.7-0.1,94,0.1c1.9,0,3.9-0.1,5.8-0.2c2.4-0.2,4.8-0.2,7.2-0.2c4.4,0,8.8,0,13.2,0.4
		c2.6,0.3,5.3,0.3,7.9,0c4.3-0.5,8.6-0.5,12.9-0.4c20.8,0.1,41.6-0.2,62.3,0.5c2.2,0.1,4.4,0.2,6.7-0.1c8.6-0.8,17.2-0.3,25.8-0.1
		c2,0.1,4.1,0.1,6.2,0c5.8-0.4,11.7-0.8,17.5,0c1.9,1.1,1.6,4,0.8,5.7c-1.5,1.4-3.6,1-5.4,1.1c-176.3-0.1-352.7,0-529,0
		c-2.1,0.2-4.3-1.2-4.8-3.4c0.3-2.3,2.5-4,4.8-3.7c8.1,0.1,16.2-0.4,24.2,0.2c3.3,0.2,6.5,0.2,9.8,0.2c29.2-0.1,58.4,0.2,87.6-0.2
		c10.9-0.3,21.8-0.5,32.8,0c2,0.1,4,0.1,6,0c8.5-0.4,17.1,0,25.6-0.2c7.8,0.1,15.7-0.4,23.5,0.3c3.3,0.5,6.5-1.1,9.7,0
		c2.1,0.6,4.2,0.2,6.3-0.1C233.9,351.5,237.6,351.6,241.3,351.3z"/>
</g>
<g id="_x23_866253ff">
	<path class="st216" d="M482.9,351.1c2-0.3,4-0.4,6-0.5v1.7c-2.2,0.3-4.4,0.3-6.7,0.1C482.4,352.1,482.7,351.4,482.9,351.1z"/>
</g>
</svg>
